<svg xmlns="http://www.w3.org/2000/svg" viewBox="0 0 189.36 52.06"><title>Artboard 1</title><path d="M52.32,25.95c0,14.66-11.71,25.25-25.62,25.31A25.19,25.19,0,1,1,28.21,1C40.7,1.63,52.31,11.6,52.32,25.95Z"/><path d="M116.16,41c0,1-.05,1.95,0,2.86.08,1.17-.76.75-1.29.79s-1.17.19-1.14-.83c.07-2.84,0-5.67,0-8.51,0-.81-.25-1-1-1-1.44.06-2.88,0-4.31,0-.56,0-1.05.21-1.09.68s.44.73,1,.79a13.83,13.83,0,0,1,2.4.45c1.91.56,2.3,1,2.29,2.61a2.63,2.63,0,0,1-2.39,2.77c-1.78.41-3.55.37-4.88-1.22-.41-.49-.9-1.33-.48-1.58a1.54,1.54,0,0,1,2.1.28,2.13,2.13,0,0,0,2.81.74,1,1,0,0,0,.66-.78c0-.47-.36-.54-.66-.73a8.69,8.69,0,0,0-2.38-.58c-1.93-.57-2.81-1.33-2.71-2.56a3.35,3.35,0,0,1,3.28-2.75c2.36-.05,4.72,0,7.07,0,.72,0,.65.45.75.87,2.26-1.31,4-1.14,5.38.68a5.69,5.69,0,0,1,.08,6.37C120.25,42.12,118.41,42.31,116.16,41Z"/><path d="M172.56,27.59c-1.31-.24-2.93.32-4.53-.42a4.28,4.28,0,0,1-2.63-3.44A4.71,4.71,0,0,1,167.18,19a4.28,4.28,0,0,1,6.6,2.12c.07.26.26.49.35.74.45,1.21.14,1.66-1.12,1.66-1.52,0-3,0-4.56,0-.24,0-.6-.14-.67.27a1,1,0,0,0,.18.78,2.37,2.37,0,0,0,2.16,1.11c1.2,0,2.4-.05,3.6,0,.77,0,1-.17,1-1-.06-1.6,0-3.2,0-4.79,0-.39-.27-1,.28-1.13s1.64-.41,2,.16.48.18.7,0a3.09,3.09,0,0,1,4.75.89,3.52,3.52,0,0,1,.35,1.58,39.14,39.14,0,0,1,0,5.39c-.06,1-1,.4-1.51.53s-.89,0-.87-.73c0-1.44,0-2.88,0-4.32,0-.94-.25-1.81-1.46-1.91s-1.84.48-1.88,1.85,0,3,0,4.56c0,.64-.2.83-.82.81C175.16,27.56,174,27.59,172.56,27.59Z"/><path d="M102.24,21.26c0-1.76,0-3.51,0-5.27,0-.35-.19-.89.47-.87a50.88,50.88,0,0,1,5.35.13c2.69.39,4,2.19,4.39,4.55s.12,4.87-2.07,6.6a5.57,5.57,0,0,1-3.19.91c-1.35.11-2.71,0-4.07,0-.78,0-.93-.26-.91-1C102.27,24.69,102.24,23,102.24,21.26Z"/><path d="M151.68,22.91c0-1.08,0-2.16,0-3.24,0-.39-.27-1,.27-1.14s1.5-.36,2,.15c.27.26.23.38.6.14,1.45-.92,2.87-1,4.14.34.37.4.6.17.87-.11a3.16,3.16,0,0,1,3.6-.64c1.38.54,1.7,1.83,1.68,3.22s0,2.88,0,4.32c0,.83.1,1.45-1.18,1.45s-1.27-.6-1.24-1.51c0-1.32,0-2.64,0-4,0-1.12-.59-1.81-1.45-1.79s-1.42.74-1.43,1.78c0,1.52-.06,3,0,4.55.06,1.12-.66.83-1.24.86s-1.27.16-1.2-.9c.09-1.39,0-2.8,0-4.19a2.05,2.05,0,0,0-.36-1.34c-.34-.43-.7-.89-1.38-.76a1.53,1.53,0,0,0-1.15,1.07,3.51,3.51,0,0,0-.25,1.38c0,1.08,0,2.16,0,3.24,0,1.48-.58,1.89-2,1.52-.48-.12-.39-.44-.39-.73C151.67,25.39,151.68,24.15,151.68,22.91Z"/><path d="M90.83,27.59c-1.3,0-2.34,0-3.38,0-.61,0-.84-.15-.83-.8,0-2.6,0-5.19,0-7.79,0-1.17.78-.72,1.31-.77s1.17-.16,1.13.84c-.08,1.87,0,3.75,0,5.63,0,.68.1,1,.9,1,1.31-.07,2.63,0,4,0,.55,0,1.09,0,1.18-.82s-.54-1-1.07-1.06a8.69,8.69,0,0,1-2.94-.72c-1.9-1-2-3-.3-4.28a4.59,4.59,0,0,1,5.62.44c.41.43.93,1.13.42,1.51a1.51,1.51,0,0,1-1.94-.11c-.54-.74-1.16-.68-1.87-.72s-1.17.12-1.23.66.64.94,1.15,1c.71.06,1.4.18,2.1.29a2.68,2.68,0,0,1,2.44,2.46,2.91,2.91,0,0,1-1.95,2.86C93.88,27.88,92.21,27.43,90.83,27.59Z"/><path d="M140.4,22.89c0-1.08,0-2.16,0-3.24,0-.39-.27-1,.29-1.12s1.34-.4,1.87.23c.2.24.33.46.62.15.85-.89,2-.73,3-.68.73,0,1.05-.17.94-.93a4.69,4.69,0,0,1,0-.72,1.41,1.41,0,0,1,2.14-1.21c.5.27.22.79.24,1.19,0,.87-.27,1.86,1.28,1.7.75-.08.31.74.4,1.14s0,.83-.6.73c-1-.17-1.13.3-1.08,1.14.07,1,0,2.08,0,3.11,0,.75.23,1.29,1.05,1.26s.58.54.63,1c.08.59-.2.71-.75.74-2.62.12-3.33-.54-3.33-3.15,0-1.2,0-2.4,0-3.6,0-.3.08-.6-.4-.72A3.14,3.14,0,0,0,142.8,23c0,1.2-.05,2.4,0,3.59s-.67.78-1.2.76-1.27.35-1.23-.73C140.44,25.37,140.4,24.13,140.4,22.89Z"/><path d="M135.11,33.72A2.89,2.89,0,0,1,138,32.41c1.1.11,1.68-.16,1.44-1.38-.21-1.06.23-1.32,1.28-1.32s1.19.38,1.13,1.25-.36,1.93,1.22,1.71c.66-.09.39.55.43.89s0,.87-.58.76c-1.07-.19-1.15.41-1.11,1.23.05,1,0,2.08,0,3.12,0,.65.25,1.18.91,1.15.94,0,.74.54.78,1.08.06.83-.54.58-1,.63-2.39.27-3.11-.64-3.11-3.08a23.25,23.25,0,0,1,0-2.64c.13-1.17-.2-1.6-1.46-1.51-2,.14-2.87,1-2.88,2.91,0,1.12-.07,2.24,0,3.36s-.41,1-1.14,1-1.09,0-1.07-.93c.07-2.36,0-4.72,0-7.07,0-.51,0-1,.71-.88C134.24,32.76,135.28,32.07,135.11,33.72Z"/><path d="M124.8,26.73c0,.82,0,1.54,0,2.25a1.42,1.42,0,0,1-2.15,1.21c-.42-.23-.24-.64-.24-1,0-3.07,0-6.15,0-9.22,0-1.49,1.06-2.13,2.35-1.33.31.2.39.19.65,0,2.51-1.49,4.75-.11,5.61,2.44a5.54,5.54,0,0,1-.76,4.91C129.12,27.8,127.42,28,124.8,26.73Z"/><path d="M160.32,37c0,1.2-.07,2.4,0,3.59.07.94-.44.92-1.09.9s-1.17.12-1.12-.87c.09-1.83,0-3.68,0-5.51,0-1.15-.72-.79-1.28-.81s-1.22-.21-1.16.81c.08,1.19,0,2.4,0,3.59,0,.65.18,1.2,1,1.1s.64.46.68.92-.13.82-.73.76c-.4,0-.8,0-1.2,0-1.48,0-2.12-.65-2.16-2.19s0-2.8,0-4.2c0-.47,0-.9-.66-.82s-.55-.43-.53-.8-.2-.91.47-.86.75-.37.72-.89c0-.2,0-.4,0-.6a1.4,1.4,0,0,1,2.11-1.38c.52.23.27.69.28,1,0,1.81,0,1.81,1.84,1.81,2.73,0,2.73,0,2.73,2.71Q160.32,36.18,160.32,37Z"/><path d="M121.67,24.48c-.81,3.23-5.06,4.19-7.51,1.48a5.34,5.34,0,0,1-.89-5.07,4.38,4.38,0,0,1,4.38-2.9c2.16.12,4.47,2.81,4.29,5-.05.63-.4.57-.8.57-1.64,0-3.27,0-4.91,0-.25,0-.6-.15-.74.18a.9.9,0,0,0,.25,1c1.07,1.25,2.05,1.28,3.34.12C119.84,24.12,120.75,24.6,121.67,24.48Z"/><path d="M95.76,41.51c-.67-.33-1.62.61-2.22-.52-.13-.25-.36.15-.54.24a4.55,4.55,0,0,1-4,.15,2.47,2.47,0,0,1-1.57-2.3,2.36,2.36,0,0,1,1.47-2.32A7.52,7.52,0,0,1,92,36c.61,0,1.32-.09,1.35-.83s-.68-.93-1.25-1.05a1.9,1.9,0,0,0-1.92.67c-.16.19-.17.56-.57.5s-1.16.27-1.43-.21.12-1.06.53-1.46c1.64-1.64,3.56-1.42,5.46-.7,1.46.55,1.51,2,1.59,3.25C95.85,37.88,95.76,39.64,95.76,41.51Z"/><path d="M152.16,41.5c-.69-.19-1.58.48-2.2-.49-.18-.29-.35.12-.52.21a4.27,4.27,0,0,1-4.07.13,2.61,2.61,0,0,1-1.56-2.3,3.09,3.09,0,0,1,2-2.51,8.42,8.42,0,0,1,2.87-.55.84.84,0,0,0,1-.79c.05-.49-.35-.72-.8-.89a1.81,1.81,0,0,0-2.54.88c-.45.68-1.19.38-1.7.24s-.21-.72-.07-1.14c.5-1.51,3-2,4.25-1.84,3,.48,3.25,2.08,3.28,4.18C152.18,38.2,152.16,39.79,152.16,41.5Z"/><path d="M132,21.15c.57-2,1.37-2.89,2.79-2.91,1.78,0,3.7-.34,4.69,1.79a2.33,2.33,0,0,1,.18.91c.11,1.9-.23,3.81.22,5.7.06.23.13.65-.27.67-.61,0-1.44.35-1.79-.17s-.65-.24-1-.06a3.8,3.8,0,0,1-4.4-.4,2.22,2.22,0,0,1-.91-2.4A3.33,3.33,0,0,1,134,22.09a10.2,10.2,0,0,1,2.21-.31c.43,0,1.19,0,1.09-.88s-.5-1-1.2-1-1.43,0-1.9.83S132.82,20.92,132,21.15Z"/><path d="M96.48,37.06c0-1.08,0-2.16,0-3.23,0-.39-.27-1,.28-1.13s1.65-.41,2,.15.63.23.85.09c2.4-1.48,4.79-.08,5,2.72.13,1.71,0,3.43,0,5.15,0,1.1-.79.65-1.27.68s-1.18.33-1.15-.68c0-1.36,0-2.71,0-4.07s-.57-2.19-1.65-2.19-1.67.49-1.69,1.63c0,1.52-.06,3,0,4.55,0,.93-.54.84-1.08.76s-1.38.46-1.35-.72S96.48,38.3,96.48,37.06Z"/><path d="M60.73,41.75c-2.65.07-4.59-1.91-4.55-4.83a4.32,4.32,0,0,1,4.49-4.53,4.68,4.68,0,1,1,.06,9.36Z"/><path d="M86.16,22.86a4.48,4.48,0,0,1-4.7,4.68,4.41,4.41,0,0,1-4.57-4.86c.1-2.92,1.65-4.58,4.7-4.64C83.95,18,86.11,19.71,86.16,22.86Z"/><path d="M80.31,29.51c1.44,0,2.88.06,4.31,0,1-.06.8.59.82,1.16s.09,1.18-.81,1a1.34,1.34,0,0,0-.24,0c-2.79,0-2.79,0-2.79,2.88,0,2,0,4.07,0,6.11,0,.69-.22.86-.88.87-1.77,0-1.77,0-1.77-1.76,0-2.39,0-4.79,0-7.18,0-.75-.22-1-.95-.92s-1.2,0-1.79,0a1.27,1.27,0,0,1-1.09-1.92c.2-.38.56-.23.85-.24C77.43,29.5,78.87,29.51,80.31,29.51Z"/><path d="M127.85,41.75a4.42,4.42,0,0,1-4.7-4.83,4.34,4.34,0,0,1,4.77-4.5c2.65,0,4.44,1.94,4.5,4.74A4.4,4.4,0,0,1,127.85,41.75Z"/><path d="M161,37a4.3,4.3,0,0,1,4.39-4.61,4.74,4.74,0,0,1,4.76,4.9c-.13,2.64-1.92,4.32-4.67,4.48A4.38,4.38,0,0,1,161,37Z"/><path d="M68.4,22.71c0-1.12,0-2.24,0-3.35,0-.37-.23-1,.22-1.06.61-.12,1.44-.4,1.88.18s.71.29,1,.06a2.85,2.85,0,0,1,3.3-.06,2.89,2.89,0,0,1,1.47,2.77c0,1.68-.07,3.36,0,5,.05,1-.57.87-1.14.83s-1.35.38-1.3-.79c.07-1.51,0-3,0-4.55,0-1-.42-1.61-1.45-1.6a1.5,1.5,0,0,0-1.67,1.56c0,1.52-.07,3,0,4.55.06,1-.58.86-1.15.82s-1.36.37-1.29-.79S68.4,23.91,68.4,22.71Z"/><path d="M173.07,33.72A3.33,3.33,0,0,1,177,32.66a3,3,0,0,1,1.84,3.11c0,1.64-.06,3.27,0,4.91.05,1-.59.85-1.15.82s-1.34.36-1.29-.8c.07-1.47,0-3,0-4.43s-.34-1.71-1.51-1.72-1.6.47-1.6,1.69c0,1.4-.08,2.8,0,4.19.09,1.09-.45,1.11-1.26,1.11s-1.23,0-1.19-1.05c.09-2.23,0-4.47,0-6.7,0-.47-.32-1.22.68-1.15C172.28,32.68,173.27,32.24,173.07,33.72Z"/><path d="M184.32,23.14c0-.72,0-1.44,0-2.16s-.11-1.22-1-1.09c-.49.07-.45-.35-.43-.66s-.15-.78.34-.73c1.62.16,1.08-1,1.06-1.74,0-.93.23-1.19,1.18-1.21s1,.5,1,1.23-.38,1.94,1.22,1.71c.66-.09.4.54.44.88s0,.87-.57.76c-1.07-.19-1.15.4-1.11,1.23.05,1,0,2,0,3,0,.81.16,1.45,1.18,1.3.85-.12.73.46.75,1s0,1-.78,1a9.71,9.71,0,0,1-2.21-.34,1.41,1.41,0,0,1-1.09-1.49C184.32,24.9,184.32,24,184.32,23.14Z"/><path d="M66.48,37.86c0-.72,0-1.44,0-2.16s.25-1.56-1-1.43c-.63.07-.34-.59-.38-.93s-.08-.77.5-.72.9-.22.95-.89A2.58,2.58,0,0,1,70,29.52c.4.14.34.42.3.66s.28.83-.31,1a4,4,0,0,0-.89.28.88.88,0,0,0-.43.9c.07.41.45.27.68.25.66-.05,1,.06,1,.88s-.32.9-.93.81-.8.22-.79.82c0,1.84-.05,3.68,0,5.51,0,1-.51.86-1.12.87s-1.17,0-1.08-.9S66.48,38.78,66.48,37.86Z"/><path d="M56.16,21c0-1.72,0-3.44,0-5.15,0-.93.54-.85,1.07-.77s1.37-.47,1.36.71q0,5.27,0,10.54c0,1.19-.85.63-1.36.71s-1.1.16-1.07-.77C56.21,24.56,56.16,22.8,56.16,21Z"/><path d="M62.4,21.07c0-1.72.05-3.44,0-5.15,0-1.15.74-.77,1.29-.8s1.17-.21,1.16.82c-.06,3.47,0,6.95,0,10.42,0,1.07-.71.73-1.22.74s-1.24.32-1.21-.75C62.44,24.59,62.4,22.83,62.4,21.07Z"/><path d="M59.52,21c0-1.72,0-3.44,0-5.15,0-.93.53-.8,1.07-.78s1.13-.25,1.12.73q-.06,5.27,0,10.54c0,1-.63.7-1.13.72s-1.1.14-1.07-.79C59.57,24.56,59.52,22.8,59.52,21Z"/><path d="M82.8,37c0-1.16,0-2.32,0-3.47,0-.31-.23-.88.29-.88s1.42-.47,1.82.27c.26.48.38.4.65.13a2,2,0,0,1,.9-.51c.46-.13,1.06-.43,1.26,0a3.58,3.58,0,0,1,.05,1.76c0,.28-.39.18-.62.2A2.2,2.2,0,0,0,85,36.91c0,1.28-.06,2.56,0,3.83,0,.95-.56.76-1.09.76s-1.15.21-1.1-.75C82.85,39.52,82.8,38.28,82.8,37Z"/><path d="M67.68,22.63c0,1.24,0,2.48,0,3.71.05,1.07-.69.76-1.21.75s-1.24.34-1.22-.73c0-2.47,0-4.95,0-7.42,0-1,.67-.72,1.14-.68s1.3-.44,1.27.67S67.68,21.39,67.68,22.63Z"/><path d="M87.89,15.13c1-.17,1.16.29,1.18,1.14,0,1-.58,1-1.3,1-.9.05-1.14-.32-1.15-1.18C86.61,15.09,87.17,15,87.89,15.13Z"/><path d="M66.58,17.26c-.75.07-1.33,0-1.32-1,0-.85.24-1.23,1.15-1.18.72,0,1.33,0,1.3,1C67.68,16.95,67.49,17.42,66.58,17.26Z"/><path d="M159.17,29.53c.74-.12,1.2,0,1.18.92s-.29,1.25-1.24,1.25-1-.29-1-1S158.13,29.26,159.17,29.53Z"/><path d="M26.92,48.47A22.59,22.59,0,0,1,4.05,24.25,22.54,22.54,0,0,1,27.42,3.62c12.46.43,22.19,9.82,22.17,22.54S39.59,48.16,26.92,48.47Z" fill="#fefefe"/><path d="M118,39.83c-1.2,0-2.1-1.17-2-2.79.09-2,1.05-2.74,2.12-2.75,1.57,0,2.13,1.4,2.13,3.06C120.19,38.69,119.53,39.91,118,39.83Z" fill="#fefefe"/><path d="M169.69,21.83a.87.87,0,0,1-.24,0c-.55-.16-1.55.4-1.59-.35s.81-1.35,1.74-1.39a2,2,0,0,1,1.29.23c.36.27.82.56.69,1.14s-.7.28-1.07.36A4,4,0,0,1,169.69,21.83Z" fill="#fefefe"/><path d="M104.88,21.36c0-1.11,0-2.23,0-3.34,0-.56.16-.73.74-.77,2.46-.15,3.39.36,4.11,2.1a6.15,6.15,0,0,1,.09,4.11c-.39,1.35-3.38,2.52-4.65,1.94-.36-.16-.26-.45-.27-.7C104.87,23.59,104.88,22.48,104.88,21.36Z" fill="#fefefe"/><path d="M129,22.87c-.38,1-.46,2.06-1.51,2.58a1.52,1.52,0,0,1-1.95-.22,3.51,3.51,0,0,1-.8-3.25A2.32,2.32,0,0,1,126.46,20a1.45,1.45,0,0,1,1.68.73A13.47,13.47,0,0,1,129,22.87Z" fill="#fefefe"/><path d="M117.3,21.83a3.18,3.18,0,0,1-.71,0c-.38-.09-.93.3-1.13-.3s.28-.88.64-1.17a1.94,1.94,0,0,1,2.94.52c.36.64.36,1-.55,1C118.1,21.8,117.7,21.83,117.3,21.83Z" fill="#fefefe"/><path d="M93.32,37.09c.17,2,.11,2.34-1.47,2.89-.81.28-2-.22-2.06-.89-.15-1,.64-1.22,1.37-1.43S92.57,37.29,93.32,37.09Z" fill="#fefefe"/><path d="M149.64,37.21c.58,2.32-.68,2.91-2.23,2.86a1.17,1.17,0,0,1-1.23-1c-.13-.68.33-1,.89-1.2C147.91,37.6,148.78,37.42,149.64,37.21Z" fill="#fefefe"/><path d="M137.46,22.89c.51,2.59-1.11,3.05-2.64,2.78a1,1,0,0,1-.91-1.06c-.06-.71.44-.91.91-1.05C135.67,23.29,136.55,23.12,137.46,22.89Z" fill="#fefefe"/><path d="M62.88,36.91c0,2-.35,2.51-1.78,3a1.29,1.29,0,0,1-1-.1c-1.34-.46-2-2.17-1.52-3.89a2.32,2.32,0,0,1,3-1.58C62.87,34.74,63,35.89,62.88,36.91Z" fill="#fefefe"/><path d="M83.76,22.81c0,1.74-.73,2.77-1.94,2.87a2,2,0,0,1-2.21-1.19,3.52,3.52,0,0,1,.23-3.68,1.82,1.82,0,0,1,2-.9,2,2,0,0,1,1.73,1.39A4.15,4.15,0,0,1,83.76,22.81Z" fill="#fefefe"/><path d="M130.08,37.24a2.74,2.74,0,0,1-1.37,2.56,1.87,1.87,0,0,1-2.19-.21,3.48,3.48,0,0,1-.94-3.54A2.23,2.23,0,0,1,128,34.31C129.27,34.39,130.09,35.57,130.08,37.24Z" fill="#fefefe"/><path d="M167.76,37.08a2.54,2.54,0,0,1-1.4,2.75,2.07,2.07,0,0,1-2.91-1.56,4,4,0,0,1-.06-2.05c.52-1.52,1-2,2.35-1.9a2.25,2.25,0,0,1,2,2.32C167.77,36.83,167.76,37,167.76,37.08Z" fill="#fefefe"/><path d="M29.21,45.19c-2.51,2.09-2,2.18-4.67.16a20.13,20.13,0,0,1-6.28-8.16,18.57,18.57,0,0,1-1.69-8.57,1.05,1.05,0,0,0-.64-1.12,14.35,14.35,0,0,1-5.2-4.89c-.33-.53-.38-.76.26-1.13A15.24,15.24,0,0,1,29.85,24c.5.54.91.86,1.42.06a.28.28,0,0,1,.09-.08c.74-.47,1.62-1,1.77-1.82s-.88-1.21-1.44-1.74a18,18,0,0,0-9.32-4.57,14.33,14.33,0,0,0-3.5-.45A20.58,20.58,0,0,0,11.44,17c-.32.15-.67.21-1,.36-1.89.88-1.92.85-2.07-1.12a1.18,1.18,0,0,1,.92-1.32,28.16,28.16,0,0,1,7.42-2,21.4,21.4,0,0,1,12.07,2.28,3.05,3.05,0,0,0,3.11,0,15.06,15.06,0,0,1,5.51-1.49c.79-.06,1,.2,1,1A14.8,14.8,0,0,1,27.09,29c-.8.19-1,.48-.93,1.17,0,.16,0,.32,0,.48.2,2.36.73,2.72,3,2a18.92,18.92,0,0,0,12.1-11.06,14.29,14.29,0,0,0,1.25-6.3c0-.84.21-1.06,1-.72,1.86.77,1.87.95,1.51,3a25.7,25.7,0,0,1-1.54,5.63,21.35,21.35,0,0,1-6.85,8.66A14,14,0,0,1,34.85,33c-1.22.68-.86,1.94-1,2.93a14.72,14.72,0,0,1-1.58,5.37c-.33.64-.69.55-1.23.3a12.05,12.05,0,0,1-4.12-3.24,14.55,14.55,0,0,1-3.63-9.92A9.78,9.78,0,0,1,24.1,24c.26-.51.12-.82-.43-1-.79-.23-1.56-.52-2.36-.69-.57-.12-1,0-1.21.74A18.16,18.16,0,0,0,22,38.46,18.81,18.81,0,0,0,29.21,45.19Z"/><path d="M31.16,34.91a4.13,4.13,0,0,1-.2,2.18c0,.11,0,.25-.12.32s-.07.52-.43.46a9.15,9.15,0,0,1-1.84-2c0-.44.29-.35.55-.41C29.79,35.33,30.46,35.12,31.16,34.91Z" fill="#fefefe"/><path d="M16.61,24.82A7.57,7.57,0,0,1,14.54,23c0-.27.15-.19.28-.23a2.26,2.26,0,0,1,1-.25c.47.07,1.15-.63,1.36,0a3.13,3.13,0,0,1-.37,2.12C16.78,24.71,16.81,24.9,16.61,24.82Z" fill="#fefefe"/><path d="M34.87,16.82c.6-.08.72.2.64.55-.17.69-.3,1.87-.83,1.84s-1.6-1-1.57-1.53C33.15,17,34.37,17.16,34.87,16.82Z" fill="#fefefe"/></svg>