<?xml version="1.0" encoding="utf-8"?>
<!-- Generator: Adobe Illustrator 21.0.2, SVG Export Plug-In . SVG Version: 6.00 Build 0)  -->
<svg version="1.1" id="Layer_1" xmlns="http://www.w3.org/2000/svg" xmlns:xlink="http://www.w3.org/1999/xlink" x="0px" y="0px"
	 viewBox="0 0 584.4 117" style="enable-background:new 0 0 584.4 117;" xml:space="preserve">
<style type="text/css">
	.st0{fill:#8DC741;}
	.st1{fill:#2FABE1;}
	.st2{fill:#26388A;}
	.st3{fill:#F79421;}
	.st4{fill:#BD202E;}
	.st5{fill:#9D9FA2;}
	.st6{fill:#009447;}
</style>
<title>Artboard 1</title>
<path class="st0" d="M181.1,44.8L181.1,44.8L181.1,44.8z"/>
<path class="st1" d="M129.2,0c-8.3,0-16.5,2.4-23.6,6.8v37.8c0-13,10.6-23.6,23.6-23.5c13,0,23.6,10.6,23.5,23.6
	c0,13-10.6,23.5-23.6,23.5c-13,0-23.6-10.6-23.6-23.6v37.9c20.9,13.1,48.4,6.7,61.5-14.2s6.7-48.4-14.2-61.5
	C145.8,2.3,137.6,0,129.2,0"/>
<path class="st2" d="M105.7,82.5V6.8l0,0V1.6H84.6V117h21.1L105.7,82.5L105.7,82.5z"/>
<path class="st3" d="M21.1,6.8v37.9c0-13,10.5-23.6,23.6-23.6c6.2,0,12.2,2.5,16.7,6.9l14.9-14.9C61.5-1.6,38.7-4.2,21.1,6.8"/>
<polygon class="st4" points="0,1.6 0,87.9 21.1,87.9 21.1,44.7 21.1,6.8 21.1,1.6 "/>
<path class="st5" d="M301.6,24.4c0.8,0,1.7-0.1,2.4-0.5c0.8-0.4,1.5-0.9,2.1-1.5l1.8,1.8c-1.6,1.8-3.8,2.9-6.2,2.8
	c-2.3,0.1-4.5-0.8-6.1-2.4c-1.6-1.6-2.5-3.7-2.4-6c-0.1-2.3,0.8-4.4,2.5-6c1.7-1.6,3.9-2.5,6.2-2.4c2.4,0,4.7,1,6.3,2.8l-1.7,1.9
	c-0.7-0.6-1.4-1.1-2.3-1.5c-0.8-0.3-1.6-0.5-2.4-0.4c-1.5,0-3,0.5-4.1,1.6c-1.1,1-1.7,2.5-1.7,4c0,1.5,0.6,3,1.6,4.1
	C298.7,23.8,300.1,24.4,301.6,24.4"/>
<polygon class="st5" points="313.3,26.9 313.3,10.7 316.1,10.7 316.1,17.7 324.1,17.7 324.1,10.7 326.8,10.7 326.8,26.9 324.1,26.9 
	324.1,20.3 316.1,20.3 316.1,26.9 "/>
<path class="st5" d="M342.6,20.7l-2.9-6.7l-2.9,6.7H342.6z M335.6,23.2l-1.6,3.7h-2.9l7.1-16.1h2.9l7.1,16.2h-2.9l-1.6-3.7
	L335.6,23.2z"/>
<polygon class="st5" points="355.3,26.9 352.6,26.9 352.6,10.7 356.8,10.7 361.7,20.9 366.6,10.7 370.8,10.7 370.8,26.9 368.1,26.9 
	368.1,14.3 362.4,25.5 360.9,25.5 355.3,14.3 "/>
<path class="st5" d="M386.4,18.8c0.6-0.7,0.9-1.6,0.8-2.5c0.1-0.9-0.3-1.8-1-2.4c-1-0.5-2.1-0.8-3.3-0.7h-2.8v6.5h3.2
	C384.4,19.8,385.5,19.5,386.4,18.8 M388.3,12.1c1.2,1.1,1.8,2.7,1.7,4.3c0.1,1.6-0.5,3.2-1.7,4.3c-1.6,1-3.4,1.5-5.3,1.4h-2.9v4.7
	h-2.7V10.7h5.5C385.4,10.7,387.2,11.2,388.3,12.1"/>
<path class="st5" d="M403.6,20.7l-2.9-6.7l-2.9,6.7H403.6z M396.6,23.2l-1.6,3.7h-2.9l7.1-16.1h3l7.1,16.1h-2.9l-1.6-3.7H396.6z"/>
<rect x="413.6" y="10.7" class="st5" width="2.7" height="16.1"/>
<path class="st5" d="M434.1,19h2.7v5.5c-1.7,1.8-4.1,2.7-6.6,2.5c-2.2,0.1-4.4-0.8-6-2.4c-3.3-3.3-3.3-8.7,0-12
	c1.6-1.6,3.8-2.5,6-2.4c2.1-0.1,4.2,0.6,5.8,2l-1.4,2.2c-0.6-0.5-1.2-0.9-1.9-1.1c-0.7-0.2-1.5-0.3-2.2-0.3c-1.5,0-3,0.5-4.1,1.6
	c-2.3,2.1-2.4,5.7-0.3,8c1.1,1.2,2.6,1.8,4.2,1.8c1.4,0,2.7-0.3,3.9-1V19z"/>
<polygon class="st5" points="454.6,10.7 457.3,10.7 457.3,26.9 454.3,26.9 445.2,15.1 445.2,26.9 442.4,26.9 442.4,10.7 445.2,10.7 
	454.6,22.8 "/>
<path class="st5" d="M479.6,24.4c0.8,0,1.7-0.1,2.4-0.5c0.8-0.4,1.5-0.9,2.2-1.5l1.8,1.8c-1.6,1.8-3.8,2.9-6.2,2.8
	c-2.3,0.1-4.5-0.8-6.1-2.4c-1.6-1.6-2.5-3.7-2.4-6c-0.1-2.3,0.8-4.4,2.5-6c1.7-1.6,3.9-2.5,6.2-2.4c2.4,0,4.7,1,6.3,2.8l-1.7,1.9
	c-0.7-0.6-1.4-1.1-2.3-1.5c-0.8-0.3-1.6-0.5-2.4-0.4c-1.5,0-3,0.5-4.1,1.6c-1.1,1-1.7,2.5-1.7,4c0,1.5,0.6,3,1.7,4.1
	C476.7,23.8,478.1,24.4,479.6,24.4"/>
<path class="st5" d="M502.5,14.5c-2.2-2.2-5.8-2.3-8-0.1c0,0-0.1,0.1-0.1,0.1c-2.2,2.3-2.2,6,0,8.3c2.2,2.2,5.8,2.3,8,0.1
	c0,0,0.1-0.1,0.1-0.1C504.7,20.5,504.7,16.8,502.5,14.5 M504.5,24.6c-3.4,3.2-8.7,3.2-12.1,0c-3.3-3.3-3.3-8.6,0-11.9
	c3.4-3.2,8.7-3.2,12.1,0C507.8,16,507.8,21.3,504.5,24.6"/>
<path class="st5" d="M516.1,23.2c1.6,1.7,4.2,1.7,5.8,0.2c0.1-0.1,0.1-0.1,0.2-0.2c0.8-1,1.2-2.2,1.1-3.5v-8.9h2.7v9.1
	c0.1,2-0.6,3.9-1.9,5.4c-2.8,2.5-7,2.5-9.8,0c-1.4-1.4-2.1-3.4-2-5.4v-9.1h2.7v8.9C514.9,20.9,515.3,22.2,516.1,23.2"/>
<polygon class="st5" points="544.4,10.7 547.1,10.7 547.1,26.9 544.2,26.9 535,15.1 535,26.9 532.3,26.9 532.3,10.7 535,10.7 
	544.4,22.8 "/>
<polygon class="st5" points="559.8,13.2 559.8,26.9 557.1,26.9 557.1,13.2 552.2,13.2 552.2,10.7 564.7,10.7 564.7,13.2 "/>
<polygon class="st5" points="576.1,26.9 573.3,26.9 573.3,20.5 567.3,10.7 570.3,10.7 574.7,18.1 579.1,10.7 582.1,10.7 576.1,20.5 
	"/>
<path class="st5" d="M303.5,46c0.6-0.6,0.9-1.4,0.8-2.3c0.1-0.8-0.2-1.6-0.9-2.2c-0.9-0.5-2-0.7-3-0.6H297v5.8h3.4
	C301.5,46.8,302.6,46.6,303.5,46 M307.1,43.7c0,2.7-1.2,4.3-3.5,5l4.2,5.9h-3.5l-3.9-5.4H297v5.4h-2.8V38.5h6c2.5,0,4.2,0.4,5.3,1.2
	C306.6,40.7,307.2,42.2,307.1,43.7"/>
<polygon class="st5" points="324.5,38.4 324.5,41 315.9,41 315.9,45.3 323.6,45.3 323.6,47.7 315.9,47.7 315.9,52 324.8,52 
	324.8,54.6 313.2,54.6 313.2,38.4 "/>
<path class="st5" d="M341.5,46.7h2.7v5.5c-1.7,1.8-4.1,2.7-6.5,2.5c-2.2,0.1-4.4-0.8-6-2.4c-3.3-3.3-3.3-8.7,0-12
	c1.6-1.6,3.8-2.5,6-2.4c2.1-0.1,4.2,0.6,5.8,2l-1.5,2.1c-0.6-0.5-1.2-0.9-1.9-1.1c-0.7-0.2-1.5-0.3-2.2-0.3c-1.5,0-3,0.5-4.1,1.6
	c-2.3,2.1-2.4,5.7-0.3,8c1.1,1.2,2.6,1.8,4.2,1.8c1.4,0,2.7-0.3,3.9-1L341.5,46.7z"/>
<rect x="349.9" y="38.4" class="st5" width="2.7" height="16.2"/>
<path class="st5" d="M370.7,42.3c-2.2-2.2-5.8-2.3-8-0.1c0,0-0.1,0.1-0.1,0.1c-2.2,2.3-2.2,6,0,8.3c2.2,2.2,5.8,2.3,8,0.1
	c0,0,0.1-0.1,0.1-0.1C373,48.2,373,44.6,370.7,42.3 M372.7,52.4c-3.4,3.2-8.7,3.2-12.1,0c-3.3-3.3-3.3-8.6,0-11.9
	c3.4-3.2,8.7-3.2,12.1,0C376,43.8,376,49.1,372.7,52.4"/>
<polygon class="st5" points="392.8,38.4 395.5,38.4 395.5,54.6 392.6,54.6 383.4,42.8 383.4,54.6 380.7,54.6 380.7,38.4 383.4,38.4 
	392.8,50.5 "/>
<path class="st5" d="M411.3,48.4l-2.9-6.7l-2.9,6.7H411.3z M404.3,50.9l-1.6,3.7h-2.9l7.1-16.1h2.9l7.1,16.2h-2.9l-1.6-3.7
	L404.3,50.9z"/>
<polygon class="st5" points="421.3,54.6 421.3,38.4 424,38.4 424,52 431.4,52 431.4,54.6 "/>
<path class="st5" d="M453.8,46.5c0.6-0.7,0.9-1.6,0.8-2.5c0.1-0.9-0.3-1.8-1-2.4c-1-0.5-2.1-0.8-3.3-0.7h-2.8v6.5h3.2
	C451.9,47.5,453,47.2,453.8,46.5 M455.8,39.8c1.2,1.1,1.8,2.7,1.7,4.3c0.1,1.6-0.5,3.2-1.7,4.3c-1.6,1-3.4,1.5-5.3,1.4h-2.9v4.7
	h-2.7V38.5h5.5C452.9,38.5,454.7,39,455.8,39.8"/>
<polygon class="st5" points="462.7,54.6 462.7,38.4 465.5,38.4 465.5,52 472.8,52 472.8,54.6 "/>
<path class="st5" d="M487.1,48.4l-2.9-6.7l-2.9,6.7L487.1,48.4z M480.1,50.9l-1.6,3.7h-2.9l7.1-16.1h2.9l7.1,16.2h-2.9l-1.7-3.7
	L480.1,50.9z"/>
<polygon class="st5" points="509.2,38.4 511.9,38.4 511.9,54.6 509,54.6 499.8,42.8 499.8,54.6 497.1,54.6 497.1,38.4 499.8,38.4 
	509.2,50.5 "/>
<polygon class="st5" points="530.6,38.4 533.3,38.4 533.3,54.6 530.4,54.6 521.2,42.8 521.2,54.6 518.5,54.6 518.5,38.4 521.2,38.4 
	530.6,50.5 "/>
<rect x="539.9" y="38.4" class="st5" width="2.7" height="16.2"/>
<polygon class="st5" points="561.2,38.4 564,38.4 564,54.6 561,54.6 551.9,42.8 551.9,54.6 549.1,54.6 549.1,38.4 551.9,38.4 
	561.2,50.5 "/>
<path class="st5" d="M581.7,46.7h2.7v5.5c-1.7,1.8-4.1,2.7-6.5,2.5c-2.2,0.1-4.4-0.8-6-2.4c-3.3-3.3-3.3-8.7,0-12
	c1.6-1.6,3.8-2.5,6-2.4c2.1-0.1,4.2,0.6,5.8,2l-1.5,2.2c-0.6-0.5-1.2-0.9-1.9-1.1c-0.7-0.2-1.5-0.3-2.2-0.3c-1.5,0-3,0.5-4.1,1.6
	c-2.3,2.1-2.4,5.7-0.3,8c1.1,1.2,2.6,1.8,4.2,1.8c1.4,0,2.7-0.3,3.8-1V46.7z"/>
<path class="st5" d="M301.6,79.9c0.8,0,1.7-0.1,2.4-0.5c0.8-0.4,1.5-0.9,2.1-1.5l1.8,1.8c-1.6,1.8-3.8,2.8-6.2,2.8
	c-2.3,0.1-4.5-0.8-6.1-2.4c-3.3-3.3-3.3-8.7,0-12c1.7-1.6,3.9-2.5,6.2-2.4c2.4,0,4.7,1,6.3,2.8l-1.7,1.9c-0.6-0.6-1.4-1.2-2.2-1.6
	c-0.8-0.3-1.6-0.5-2.4-0.4c-1.5,0-3,0.5-4.1,1.6c-1.1,1-1.7,2.5-1.7,4c0,1.5,0.6,3,1.6,4.1c1,1.1,2.4,1.7,3.9,1.6"/>
<path class="st5" d="M324.5,70c-2.2-2.2-5.8-2.3-8-0.1c0,0-0.1,0.1-0.1,0.1c-2.2,2.3-2.2,6,0,8.3c2.2,2.2,5.8,2.3,8,0.1
	c0,0,0.1-0.1,0.1-0.1C326.7,76,326.7,72.3,324.5,70 M326.5,80.1c-3.4,3.2-8.7,3.2-12.1,0c-3.3-3.3-3.3-8.6,0-11.9
	c3.4-3.2,8.7-3.2,12.1,0C329.8,71.5,329.8,76.8,326.5,80.1"/>
<polygon class="st5" points="337.2,82.3 334.5,82.3 334.5,66.2 338.7,66.2 343.6,76.3 348.5,66.2 352.7,66.2 352.7,82.3 350,82.3 
	350,69.7 344.4,80.9 342.8,80.9 337.2,69.7 "/>
<polygon class="st5" points="362,82.3 359.3,82.3 359.3,66.2 363.5,66.2 368.4,76.3 373.3,66.2 377.5,66.2 377.5,82.3 374.8,82.3 
	374.8,69.7 369.1,80.9 367.6,80.9 362,69.7 "/>
<rect x="384.1" y="66.2" class="st5" width="2.7" height="16.1"/>
<path class="st5" d="M398.2,68.3c-0.7,0-1.4,0.1-2,0.5c-0.5,0.3-0.8,0.9-0.8,1.5c0,0.6,0.3,1.2,0.8,1.5c1,0.5,2.1,0.9,3.2,1.1
	c1.4,0.3,2.6,0.8,3.7,1.7c0.9,0.8,1.3,2,1.3,3.2c0,1.3-0.6,2.6-1.6,3.4c-1.2,0.9-2.7,1.4-4.2,1.3c-2.5,0-4.9-0.9-6.7-2.6l1.7-2.1
	c1.4,1.3,3.2,2.1,5.1,2.1c0.7,0,1.5-0.2,2.1-0.6c0.5-0.3,0.8-0.9,0.8-1.5c0-0.6-0.3-1.1-0.7-1.5c-0.8-0.5-1.6-0.8-2.5-0.9
	c-0.9-0.2-1.8-0.5-2.7-0.8c-0.6-0.2-1.1-0.5-1.6-0.9c-1-0.8-1.5-2.1-1.4-3.3c-0.1-1.4,0.5-2.7,1.6-3.5c1.2-0.8,2.6-1.3,4-1.2
	c1,0,2.1,0.2,3.1,0.5c1,0.3,1.9,0.8,2.6,1.4l-1.5,2.1c-0.6-0.5-1.2-0.8-1.9-1.1C399.8,68.4,398.9,68.3,398.2,68.3"/>
<path class="st5" d="M414.9,68.3c-0.7,0-1.4,0.1-2,0.5c-0.5,0.3-0.8,0.9-0.8,1.5c0,0.6,0.3,1.2,0.8,1.5c1,0.5,2.1,0.9,3.2,1.1
	c1.4,0.3,2.6,0.8,3.7,1.7c0.9,0.8,1.3,2,1.3,3.2c0,1.3-0.6,2.6-1.6,3.4c-1.2,0.9-2.6,1.4-4.1,1.3c-2.5,0-4.9-0.9-6.7-2.6l1.7-2.1
	c1.4,1.3,3.2,2.1,5.1,2.1c0.7,0,1.5-0.2,2.1-0.6c0.5-0.3,0.8-0.9,0.8-1.5c0-0.6-0.3-1.1-0.7-1.5c-0.8-0.5-1.6-0.8-2.5-0.9
	c-0.9-0.2-1.8-0.5-2.7-0.8c-0.6-0.2-1.1-0.5-1.6-0.9c-1-0.8-1.5-2.1-1.4-3.3c-0.1-1.4,0.5-2.7,1.6-3.5c1.2-0.8,2.6-1.3,4-1.2
	c1,0,2.1,0.2,3.1,0.5c1,0.3,1.9,0.8,2.6,1.4l-1.5,2.1c-0.6-0.5-1.2-0.8-1.9-1.1C416.5,68.4,415.7,68.3,414.9,68.3"/>
<rect x="426.6" y="66.2" class="st5" width="2.7" height="16.1"/>
<path class="st5" d="M447.4,70c-2.2-2.2-5.8-2.3-8-0.1c0,0-0.1,0.1-0.1,0.1c-2.2,2.3-2.2,6,0,8.3c2.2,2.2,5.8,2.3,8,0.1
	c0,0,0.1-0.1,0.1-0.1C449.7,76,449.7,72.3,447.4,70 M449.4,80.1c-3.4,3.2-8.7,3.2-12.1,0c-3.3-3.3-3.3-8.6,0-11.9
	c3.4-3.2,8.7-3.2,12.1,0C452.7,71.5,452.7,76.8,449.4,80.1"/>
<polygon class="st5" points="469.5,66.2 472.2,66.2 472.2,82.3 469.3,82.3 460.1,70.5 460.1,82.3 457.4,82.3 457.4,66.2 460.1,66.2 
	469.5,78.2 "/>
<path class="st6" d="M225.7,68.3c-13,0-23.6-10.6-23.6-23.6h-21.1c0.1,24.7,20.1,44.6,44.8,44.5c11.8,0,23-4.7,31.3-13l-14.8-14.8
	C238,65.9,232,68.4,225.7,68.3"/>
<path class="st0" d="M202.2,44.8c0-0.8,0-1.6,0.1-2.3c1.2-13,12.7-22.5,25.7-21.2c5.5,0.5,10.6,2.9,14.4,6.8l14.8-14.9
	c-17.5-17.4-45.7-17.3-63.1,0.1c-8.3,8.4-13,19.7-13,31.5l0,0L202.2,44.8z"/>
</svg>
