<svg xmlns="http://www.w3.org/2000/svg" xmlns:xlink="http://www.w3.org/1999/xlink" viewBox="0 0 250 250"><defs><clipPath id="a"><circle cx="125" cy="125" r="118.75" fill="none"/></clipPath></defs><title>Artboard 1</title><circle cx="125" cy="125" r="118.75" fill="#e6fdff"/><g clip-path="url(#a)"><circle cx="37.93" cy="183.79" r="28.12" fill="none" stroke="gray" stroke-miterlimit="10" stroke-width="2.75"/><circle cx="117.57" cy="183.79" r="28.12" fill="none" stroke="gray" stroke-miterlimit="10" stroke-width="2.75"/><circle cx="37.93" cy="183.79" r="3.88" fill="none" stroke="#8e77ad" stroke-miterlimit="10" stroke-width="1.38"/><circle cx="117.57" cy="183.79" r="3.88" fill="none" stroke="#8e77ad" stroke-miterlimit="10" stroke-width="1.38"/><circle cx="77.75" cy="183.79" r="5.58" fill="none" stroke="#8e77ad" stroke-miterlimit="10" stroke-width="1.98"/><line x1="41.81" y1="183.79" x2="72.17" y2="183.79" fill="none" stroke="#8e77ad" stroke-miterlimit="10" stroke-width="1.98"/><line x1="75.64" y1="178.21" x2="58.51" y2="135.08" fill="none" stroke="#8e77ad" stroke-miterlimit="10" stroke-width="1.98"/><polyline points="116.47 180.07 105.72 141.14 61.35 141.29 39.95 180.48" fill="none" stroke="#8e77ad" stroke-miterlimit="10" stroke-width="1.98"/><line x1="81.44" y1="179.61" x2="105.72" y2="141.14" fill="none" stroke="#8e77ad" stroke-miterlimit="10" stroke-width="1.98"/><polyline points="105.72 141.14 103.6 133.55 96.78 133.12" fill="none" stroke="#8e77ad" stroke-miterlimit="10" stroke-width="1.98"/><rect x="51.1" y="133.12" width="11.77" height="3.92" fill="gray"/><line x1="85.23" y1="119.77" x2="85.23" y2="97.19" fill="none" stroke="#e45100" stroke-miterlimit="10" stroke-width="2.02"/><polygon points="89.76 98.52 85.23 90.67 80.7 98.52 89.76 98.52" fill="#e45100"/><line x1="199.61" y1="90.67" x2="199.61" y2="113.25" fill="none" stroke="#e45100" stroke-miterlimit="10" stroke-width="2.02"/><polygon points="195.09 111.93 199.62 119.77 204.14 111.93 195.09 111.93" fill="#e45100"/><path d="M74.81,82.31H235.36c8,0,17.66-8.5,13.8-19.56-5.15-16.48-19-11.58-19-11.58s7.53-15.93-4.15-22.59c-12.73-7.26-23.34-.58-23.34-.58s-2.32-13.39-16.53-15.19c-14-1.78-23.3,11.84-23.3,11.84s-2.83-13-17.38-11.94S126.88,29.8,126.88,29.8s-10.81-10.3-24.07-4.38C90.39,31,91.09,50.65,91.09,50.65s-11-2.5-18.28,3.22C61.87,62.49,65.1,82.31,74.81,82.31Z" fill="#e6e6e6" stroke="#999" stroke-miterlimit="10" stroke-width="1.63"/><rect x="160.43" y="130.54" width="77.87" height="68.71" fill="#fff"/><line x1="176.74" y1="130.54" x2="176.74" y2="199.24" fill="none" stroke="#b5b5b5" stroke-miterlimit="10" stroke-width="2.44"/><line x1="160.43" y1="172.06" x2="238.19" y2="172.06" fill="none" stroke="#b5b5b5" stroke-miterlimit="10" stroke-width="2.44"/><line x1="199.44" y1="199.24" x2="199.44" y2="129.73" fill="none" stroke="#b5b5b5" stroke-miterlimit="10" stroke-width="2.44"/><line x1="177.13" y1="149.36" x2="238.19" y2="149.36" fill="none" stroke="#b5b5b5" stroke-miterlimit="10" stroke-width="2.44"/><line x1="222.14" y1="172.06" x2="222.14" y2="199.24" fill="none" stroke="#000" stroke-miterlimit="10" stroke-width="2.44"/><polyline points="222.14 199.24 222.14 172.06 176.74 172.06 176.74 149.36 199.44 149.36 199.44 130.52" fill="none" stroke="#afd663" stroke-miterlimit="10" stroke-width="2.44"/><rect x="160.43" y="130.54" width="77.87" height="68.71" fill="none" stroke="gray" stroke-miterlimit="10" stroke-width="2.44"/></g><circle cx="125" cy="125" r="121.13" fill="none" stroke="#ededed" stroke-miterlimit="10" stroke-width="6"/></svg>