<svg xmlns="http://www.w3.org/2000/svg" xmlns:xlink="http://www.w3.org/1999/xlink" viewBox="0 0 250 250"><defs><clipPath id="a"><circle cx="125" cy="125" r="118.75" fill="none"/></clipPath></defs><title>Artboard 1</title><circle cx="125" cy="125" r="118.75" fill="#f8f4f0"/><g clip-path="url(#a)"><rect x="69.5" y="158.25" width="121.75" height="87.88" fill="#d8e8c8"/><polyline points="77 237.33 77 165.33 185.33 165.33 185.33 231" fill="none" stroke="#afafaf" stroke-miterlimit="10"/><line x1="70.25" y1="3.88" x2="70.25" y2="242.5" fill="none" stroke="#b5b5b5" stroke-miterlimit="10" stroke-width="6"/><line x1="6.25" y1="158.5" x2="247.75" y2="158.5" fill="none" stroke="#b5b5b5" stroke-miterlimit="10" stroke-width="6"/><line x1="26.53" y1="54.45" x2="228" y2="54.45" fill="none" stroke="#b5b5b5" stroke-miterlimit="10" stroke-width="5"/><line x1="141.01" y1="4.93" x2="141.01" y2="158.5" fill="none" stroke="#b5b5b5" stroke-miterlimit="10" stroke-width="3"/><line x1="191.25" y1="158.5" x2="191.25" y2="239" fill="none" stroke="#b5b5b5" stroke-miterlimit="10" stroke-width="3"/><line x1="70.25" y1="99.25" x2="248" y2="99.25" fill="none" stroke="#b5b5b5" stroke-miterlimit="10" stroke-width="3"/><line x1="70.25" y1="3.88" x2="70.25" y2="242.5" fill="none" stroke="#fff" stroke-miterlimit="10" stroke-width="5"/><line x1="6.25" y1="158.5" x2="247.75" y2="158.5" fill="none" stroke="#fff" stroke-miterlimit="10" stroke-width="5"/><line x1="26.53" y1="54.45" x2="228" y2="54.45" fill="none" stroke="#fff" stroke-miterlimit="10" stroke-width="4"/><line x1="141.01" y1="4.93" x2="141.01" y2="158.5" fill="none" stroke="#fff" stroke-miterlimit="10" stroke-width="2"/><line x1="191.25" y1="158.5" x2="191.25" y2="239" fill="none" stroke="#fff" stroke-miterlimit="10" stroke-width="2"/><line x1="70.25" y1="99.25" x2="248" y2="99.25" fill="none" stroke="#fff" stroke-miterlimit="10" stroke-width="2"/><polyline points="-2.75 151 63 151 63 61.25 -3 61.25 -3 57.25" fill="none" stroke="#afafaf" stroke-miterlimit="10"/><polyline points="2.75 164.75 63.5 164.75 63.5 239" fill="none" stroke="#afafaf" stroke-miterlimit="10"/><polyline points="62.75 9.75 62.75 47.5 10.5 47.5" fill="none" stroke="#afafaf" stroke-miterlimit="10"/><polyline points="75.75 3.88 75.75 49.25 136.5 49.25" fill="none" stroke="#afafaf" stroke-miterlimit="10"/><line x1="145" y1="49" x2="228.75" y2="49" fill="none" stroke="#afafaf" stroke-miterlimit="10"/><polyline points="76.13 95.13 76.13 60.13 136.33 60.13" fill="none" stroke="#afafaf" stroke-miterlimit="10"/><polyline points="76.25 103 76.25 150.5 136 150.5" fill="none" stroke="#afafaf" stroke-miterlimit="10"/><line x1="146" y1="150" x2="248.75" y2="150" fill="none" stroke="#afafaf" stroke-miterlimit="10"/><line x1="146.17" y1="60.08" x2="239.83" y2="60.08" fill="none" stroke="#afafaf" stroke-miterlimit="10"/><polyline points="198 226.5 198 164.83 245.17 164.83" fill="none" stroke="#afafaf" stroke-miterlimit="10"/><line x1="3.87" y1="158.33" x2="257.33" y2="158.33" fill="none" stroke="#66b3ff" stroke-miterlimit="10" stroke-width="3"/><line x1="181.75" y1="48" x2="181.75" y2="60.25" fill="none" stroke="#fff" stroke-miterlimit="10"/><line x1="175.63" y1="54.12" x2="187.88" y2="54.13" fill="none" stroke="#fff" stroke-miterlimit="10"/><circle cx="173.75" cy="206.08" r="2.75" fill="#e63900" stroke="#fff" stroke-miterlimit="10"/><circle cx="84.75" cy="43.08" r="2.75" fill="#e63900" stroke="#fff" stroke-miterlimit="10"/><rect x="9.92" y="41" width="231.42" height="29" fill="#f4f4f4"/><rect x="13.67" y="2.03" width="213.67" height="38.97" fill="#bfbfbf"/><line x1="6.25" y1="70.67" x2="250" y2="70.67" fill="none" stroke="#939393" stroke-miterlimit="10" stroke-opacity="0.4" stroke-width="3"/><path d="M45,56.83V60H43.4V52.14h2.95a3.24,3.24,0,0,1,2.09.61,2.06,2.06,0,0,1,.75,1.7,1.72,1.72,0,0,1-.32,1,2.22,2.22,0,0,1-.93.7,1.68,1.68,0,0,1,1,.68,2.16,2.16,0,0,1,.3,1.18v.57a2.87,2.87,0,0,0,.09.69,1,1,0,0,0,.3.53V60H48a.88.88,0,0,1-.28-.57,4.84,4.84,0,0,1-.06-.76v-.55a1.24,1.24,0,0,0-.32-.91,1.2,1.2,0,0,0-.9-.33Zm0-1.21h1.35a1.48,1.48,0,0,0,1-.28,1,1,0,0,0,.33-.83,1.14,1.14,0,0,0-.33-.85,1.32,1.32,0,0,0-1-.32H45Z" fill="#3f3f3f"/><path d="M53.11,60.07a2.62,2.62,0,0,1-2-.81,2.88,2.88,0,0,1-.75-2V57a3.18,3.18,0,0,1,.71-2.13,2.65,2.65,0,0,1,3.74-.12,2.73,2.73,0,0,1,.65,1.92v.85H52v0a1.51,1.51,0,0,0,.38.94,1.2,1.2,0,0,0,.93.37,3,3,0,0,0,.86-.1,4,4,0,0,0,.75-.33l.42,1a2.89,2.89,0,0,1-.93.48A4,4,0,0,1,53.11,60.07ZM53,55.25a.82.82,0,0,0-.69.33,1.73,1.73,0,0,0-.31.88l0,0h1.92v-.14a1.26,1.26,0,0,0-.23-.8A.84.84,0,0,0,53,55.25Z" fill="#3f3f3f"/><path d="M58.8,58.86a.93.93,0,0,0,.67-.24.86.86,0,0,0,.25-.65h1.42l0,0a1.81,1.81,0,0,1-.66,1.47,2.8,2.8,0,0,1-3.7-.23,3.13,3.13,0,0,1-.7-2.11V57a3.15,3.15,0,0,1,.7-2.11,2.48,2.48,0,0,1,2-.83,2.44,2.44,0,0,1,1.73.61,2,2,0,0,1,.64,1.61v0H59.73a1.13,1.13,0,0,0-.25-.75.84.84,0,0,0-.68-.3.91.91,0,0,0-.88.48A2.66,2.66,0,0,0,57.66,57v.16a2.65,2.65,0,0,0,.25,1.25A.92.92,0,0,0,58.8,58.86Z" fill="#3f3f3f"/><path d="M61.81,57a3.12,3.12,0,0,1,.73-2.13,2.53,2.53,0,0,1,2-.83,2.55,2.55,0,0,1,2,.83A3.1,3.1,0,0,1,67.3,57v.11a3.11,3.11,0,0,1-.73,2.13,2.87,2.87,0,0,1-4,0,3.11,3.11,0,0,1-.73-2.13Zm1.56.11a2.52,2.52,0,0,0,.28,1.27,1,1,0,0,0,.9.48,1,1,0,0,0,.89-.48,2.5,2.5,0,0,0,.28-1.27V57a2.48,2.48,0,0,0-.28-1.26,1,1,0,0,0-.9-.49,1,1,0,0,0-.89.49A2.5,2.5,0,0,0,63.38,57Z" fill="#3f3f3f"/><path d="M71.32,55.5l-.57,0a1,1,0,0,0-.57.15.92.92,0,0,0-.34.41V60H68.27V54.15h1.46l.07.86a1.84,1.84,0,0,1,.53-.71,1.18,1.18,0,0,1,.75-.25l.22,0,.2,0Z" fill="#3f3f3f"/><path d="M71.88,57.1a3.78,3.78,0,0,1,.59-2.22A1.93,1.93,0,0,1,74.14,54a1.63,1.63,0,0,1,.78.19,1.88,1.88,0,0,1,.61.54V51.58h1.57V60H75.76l-.13-.71a1.93,1.93,0,0,1-.65.61,1.72,1.72,0,0,1-.86.21,2,2,0,0,1-1.66-.78,3.35,3.35,0,0,1-.59-2.07Zm1.56.11a2.39,2.39,0,0,0,.26,1.21.9.9,0,0,0,.84.44,1.22,1.22,0,0,0,.59-.14,1.09,1.09,0,0,0,.41-.4V55.83a1.22,1.22,0,0,0-.41-.43,1.09,1.09,0,0,0-.58-.15.88.88,0,0,0-.84.51,2.92,2.92,0,0,0-.27,1.34Z" fill="#3f3f3f"/><path d="M80,52.76H78.41V51.58H80ZM80,60H78.41V54.15H80Z" fill="#3f3f3f"/><path d="M82.7,54.15l.07.83a2.12,2.12,0,0,1,.71-.69,1.86,1.86,0,0,1,1-.25,1.75,1.75,0,0,1,1.38.55,2.55,2.55,0,0,1,.49,1.73V60H84.73V56.33a1.18,1.18,0,0,0-.24-.83,1,1,0,0,0-.71-.25,1.21,1.21,0,0,0-.56.13,1.15,1.15,0,0,0-.41.36V60H81.24V54.15Z" fill="#3f3f3f"/><path d="M87.23,57.1a3.75,3.75,0,0,1,.6-2.22A1.94,1.94,0,0,1,89.51,54a1.65,1.65,0,0,1,.86.22,1.93,1.93,0,0,1,.63.63l.12-.74h1.35v5.78a2.15,2.15,0,0,1-.74,1.75,3.14,3.14,0,0,1-2.07.62,4,4,0,0,1-.93-.12,4.36,4.36,0,0,1-.91-.33l.29-1.17a3.61,3.61,0,0,0,.73.26,3.49,3.49,0,0,0,.81.09,1.4,1.4,0,0,0,.95-.27,1.06,1.06,0,0,0,.3-.84V59.4a1.76,1.76,0,0,1-.61.5,1.79,1.79,0,0,1-.8.17,2,2,0,0,1-1.67-.79,3.33,3.33,0,0,1-.6-2.07Zm1.57.11a2.39,2.39,0,0,0,.26,1.21.9.9,0,0,0,.84.44,1.29,1.29,0,0,0,.61-.13,1,1,0,0,0,.4-.39V55.81a1.08,1.08,0,0,0-.4-.41,1.17,1.17,0,0,0-.6-.15.88.88,0,0,0-.84.51,2.91,2.91,0,0,0-.27,1.34Z" fill="#3f3f3f"/><path d="M184.83,57.73a.82.82,0,0,0-.3-.65,2.78,2.78,0,0,0-1-.46,4.43,4.43,0,0,1-1.65-.74,1.48,1.48,0,0,1-.58-1.22,1.55,1.55,0,0,1,.64-1.27,2.6,2.6,0,0,1,1.65-.5,2.46,2.46,0,0,1,1.69.57,1.7,1.7,0,0,1,.62,1.36v0h-1a1,1,0,0,0-.33-.8,1.36,1.36,0,0,0-1-.31,1.4,1.4,0,0,0-.9.25.81.81,0,0,0-.31.66.72.72,0,0,0,.34.6,3.77,3.77,0,0,0,1.13.46,3.75,3.75,0,0,1,1.57.76,1.61,1.61,0,0,1,.54,1.24,1.5,1.5,0,0,1-.64,1.27,2.76,2.76,0,0,1-1.68.47,3,3,0,0,1-1.76-.53,1.64,1.64,0,0,1-.73-1.46v0h1a1,1,0,0,0,.4.87,1.77,1.77,0,0,0,1,.29,1.55,1.55,0,0,0,.92-.24A.76.76,0,0,0,184.83,57.73Z" fill="#3f3f3f"/><path d="M191.4,53.83h-1.93v5.54H188.4V53.83h-1.93V53h4.94Z" fill="#3f3f3f"/><path d="M197.09,56.75a2.7,2.7,0,0,1-.74,1.94,2.52,2.52,0,0,1-1.91.77,2.44,2.44,0,0,1-1.87-.77,2.74,2.74,0,0,1-.72-1.94V55.6a2.74,2.74,0,0,1,.72-1.94,2.43,2.43,0,0,1,1.87-.77,2.52,2.52,0,0,1,1.91.77,2.7,2.7,0,0,1,.74,1.94ZM196,55.59a2,2,0,0,0-.43-1.31,1.43,1.43,0,0,0-1.16-.51,1.35,1.35,0,0,0-1.11.51,2,2,0,0,0-.41,1.31v1.16a2.07,2.07,0,0,0,.41,1.32,1.35,1.35,0,0,0,1.12.52,1.42,1.42,0,0,0,1.16-.51,2,2,0,0,0,.42-1.33Z" fill="#3f3f3f"/><path d="M199.31,56.95v2.43h-1.07V53h2.5a2.37,2.37,0,0,1,1.66.55,2,2,0,0,1,0,2.88,2.38,2.38,0,0,1-1.66.54Zm0-.86h1.43a1.17,1.17,0,0,0,.89-.32,1.12,1.12,0,0,0,.3-.8,1.08,1.08,0,0,0-1.19-1.14h-1.43Z" fill="#3f3f3f"/><path d="M175.57,53.41a.77.77,0,1,0-.77-.77A.77.77,0,0,0,175.57,53.41Zm1.28,3A2.14,2.14,0,1,0,179,58.52,2.14,2.14,0,0,0,176.85,56.39Zm0,3.63a1.49,1.49,0,1,1,1.49-1.49A1.49,1.49,0,0,1,176.85,60ZM175,55.53h1.79V54.8h-1.35l-.79-1.38a.74.74,0,0,0-.62-.36.75.75,0,0,0-.51.21l-1.64,1.58a.75.75,0,0,0-.21.51.77.77,0,0,0,.42.62l1.41.88v2h.73V56.26l-.9-.73,1-1Zm-4.12.85A2.14,2.14,0,1,0,173,58.52,2.14,2.14,0,0,0,170.88,56.39Zm0,3.63a1.49,1.49,0,1,1,1.49-1.49A1.49,1.49,0,0,1,170.88,60Z" fill="#3f3f3f"/><polyline points="125 158.13 191.25 158.13 191.25 231.33" fill="none" stroke="#fab03b" stroke-miterlimit="10" stroke-width="3"/><circle cx="125" cy="158.13" r="9.88" fill="#fff" stroke="#bfbfbf" stroke-miterlimit="10"/><circle cx="125" cy="158.13" r="7.9" fill="#fab03b"/><path d="M128.16,156.56h-1.37c0-.5-.07-1.46-.62-1.8a1,1,0,0,0-1.06.08,4.85,4.85,0,0,0-2.11,2.38l-.07.19,2.14,1.19-.64,2.2a.22.22,0,0,0,.12.29l.09,0a.22.22,0,0,0,.21-.14l1-2.3a.22.22,0,0,0,0-.26l-1.58-1.08a9.46,9.46,0,0,1,1.12-1.83.51.51,0,0,1,.61-.21c.35.22.43,1,.4,1.51V157h1.84a.22.22,0,0,0,0-.45Z" fill="#fff"/><circle cx="126.8" cy="153.6" r="1.05" fill="#fff"/><path d="M121.8,162.74a2.25,2.25,0,1,1,2.25-2.25A2.26,2.26,0,0,1,121.8,162.74Zm0-4.06a1.8,1.8,0,1,0,1.8,1.8A1.81,1.81,0,0,0,121.8,158.68Z" fill="#fff"/><path d="M128.2,162.74a2.25,2.25,0,1,1,2.25-2.25A2.26,2.26,0,0,1,128.2,162.74Zm0-4.06a1.8,1.8,0,1,0,1.8,1.8A1.81,1.81,0,0,0,128.2,158.68Z" fill="#fff"/><path d="M121.8,160.71l-.11,0a.22.22,0,0,1-.09-.3l1.28-2.37a.22.22,0,1,1,.39.21L122,160.59A.22.22,0,0,1,121.8,160.71Z" fill="#fff"/><path d="M128.2,160.71a.22.22,0,0,1-.22-.18l-.62-3.1a.22.22,0,0,1,.44-.09l.62,3.1a.22.22,0,0,1-.18.26Z" fill="#fff"/><path d="M128.37,153.83l-3-.69a1.52,1.52,0,0,1,3,.69Z" fill="#fff"/></g><circle cx="125" cy="125" r="121.13" fill="none" stroke="#ededed" stroke-miterlimit="10" stroke-width="6"/></svg>