<svg xmlns="http://www.w3.org/2000/svg" xmlns:xlink="http://www.w3.org/1999/xlink" viewBox="0 0 250 250"><defs><clipPath id="a"><circle cx="125" cy="125" r="118.75" fill="none"/></clipPath></defs><title>Artboard 1</title><circle cx="125" cy="125" r="118.75" fill="#f8f4f0"/><g clip-path="url(#a)"><rect x="69.5" y="158.25" width="121.75" height="87.88" fill="#d8e8c8"/><polyline points="77 237.33 77 165.33 185.33 165.33 185.33 231" fill="none" stroke="#afafaf" stroke-miterlimit="10"/><line x1="70.25" y1="3.88" x2="70.25" y2="242.5" fill="none" stroke="#b5b5b5" stroke-miterlimit="10" stroke-width="6"/><line x1="6.25" y1="158.5" x2="247.75" y2="158.5" fill="none" stroke="#b5b5b5" stroke-miterlimit="10" stroke-width="6"/><line x1="26.53" y1="54.45" x2="228" y2="54.45" fill="none" stroke="#b5b5b5" stroke-miterlimit="10" stroke-width="5"/><line x1="141.01" y1="4.93" x2="141.01" y2="158.5" fill="none" stroke="#b5b5b5" stroke-miterlimit="10" stroke-width="3"/><line x1="191.25" y1="158.5" x2="191.25" y2="239" fill="none" stroke="#b5b5b5" stroke-miterlimit="10" stroke-width="3"/><line x1="70.25" y1="99.25" x2="248" y2="99.25" fill="none" stroke="#b5b5b5" stroke-miterlimit="10" stroke-width="3"/><line x1="70.25" y1="3.88" x2="70.25" y2="242.5" fill="none" stroke="#fff" stroke-miterlimit="10" stroke-width="5"/><line x1="6.25" y1="158.5" x2="247.75" y2="158.5" fill="none" stroke="#fff" stroke-miterlimit="10" stroke-width="5"/><line x1="26.53" y1="54.45" x2="228" y2="54.45" fill="none" stroke="#fff" stroke-miterlimit="10" stroke-width="4"/><line x1="141.01" y1="4.93" x2="141.01" y2="158.5" fill="none" stroke="#fff" stroke-miterlimit="10" stroke-width="2"/><line x1="191.25" y1="158.5" x2="191.25" y2="239" fill="none" stroke="#fff" stroke-miterlimit="10" stroke-width="2"/><line x1="70.25" y1="99.25" x2="248" y2="99.25" fill="none" stroke="#fff" stroke-miterlimit="10" stroke-width="2"/><polyline points="-2.75 151 63 151 63 61.25 -3 61.25 -3 57.25" fill="none" stroke="#afafaf" stroke-miterlimit="10"/><polyline points="2.75 164.75 63.5 164.75 63.5 239" fill="none" stroke="#afafaf" stroke-miterlimit="10"/><polyline points="62.75 9.75 62.75 47.5 10.5 47.5" fill="none" stroke="#afafaf" stroke-miterlimit="10"/><polyline points="75.75 3.88 75.75 49.25 136.5 49.25" fill="none" stroke="#afafaf" stroke-miterlimit="10"/><line x1="145" y1="49" x2="228.75" y2="49" fill="none" stroke="#afafaf" stroke-miterlimit="10"/><polyline points="76.13 95.13 76.13 60.13 136.33 60.13" fill="none" stroke="#afafaf" stroke-miterlimit="10"/><polyline points="76.25 103 76.25 150.5 136 150.5" fill="none" stroke="#afafaf" stroke-miterlimit="10"/><line x1="146" y1="150" x2="248.75" y2="150" fill="none" stroke="#afafaf" stroke-miterlimit="10"/><line x1="146.17" y1="60.08" x2="239.83" y2="60.08" fill="none" stroke="#afafaf" stroke-miterlimit="10"/><polyline points="198 226.5 198 164.83 245.17 164.83" fill="none" stroke="#afafaf" stroke-miterlimit="10"/><line x1="3.87" y1="158.33" x2="257.33" y2="158.33" fill="none" stroke="#66b3ff" stroke-miterlimit="10" stroke-width="3"/><polygon points="159.67 152.67 112.33 152.67 107.67 157.67 103.33 152.67 55 152.67 55 109.17 159.67 109.17 159.67 152.67" fill="#fff" stroke="#ddd" stroke-miterlimit="10" stroke-width="0.5"/><path d="M68.67,127.27v2.06H67.53v-5.69H69.8a2.24,2.24,0,0,1,1.54.5,1.82,1.82,0,0,1,0,2.63,2.25,2.25,0,0,1-1.54.5Zm0-.88H69.8a1,1,0,0,0,.72-.26.93.93,0,0,0,.25-.66,1,1,0,0,0-.24-.68.93.93,0,0,0-.72-.27H68.67Z" fill="#3f3f3f"/><path d="M75.08,129.33A2.44,2.44,0,0,1,75,129a2.19,2.19,0,0,1-.06-.33,1.58,1.58,0,0,1-.46.51,1.16,1.16,0,0,1-.69.2,1.43,1.43,0,0,1-1-.34,1.23,1.23,0,0,1-.36-.93,1.11,1.11,0,0,1,.48-1,2.38,2.38,0,0,1,1.4-.34h.64v-.34a.66.66,0,0,0-.16-.47.75.75,0,0,0-.9,0,.48.48,0,0,0-.15.37h-1.1v0a1.07,1.07,0,0,1,.46-.92,2,2,0,0,1,1.29-.39,1.89,1.89,0,0,1,1.23.38,1.33,1.33,0,0,1,.47,1.1v1.75a3.33,3.33,0,0,0,0,.56,2.82,2.82,0,0,0,.14.52Zm-1-.76a1,1,0,0,0,.54-.15.78.78,0,0,0,.32-.34v-.6h-.64a.76.76,0,0,0-.55.18.59.59,0,0,0-.19.44.44.44,0,0,0,.14.34A.54.54,0,0,0,74,128.57Z" fill="#3f3f3f"/><path d="M79.12,126.09H78.7a.76.76,0,0,0-.42.11.67.67,0,0,0-.25.3v2.86H76.9v-4.23H78l.05.63a1.33,1.33,0,0,1,.38-.52.86.86,0,0,1,.54-.19h.16l.15,0Z" fill="#3f3f3f"/><path d="M81.15,127.56h-.31v1.77H79.7v-6.09h1.14v3.46h.28l1-1.59h1.32L82.07,127l1.56,2.31H82.32Z" fill="#3f3f3f"/><path d="M89.14,127.85a.66.66,0,0,0-.23-.53,2.35,2.35,0,0,0-.81-.37,4.65,4.65,0,0,1-1.54-.7,1.32,1.32,0,0,1-.52-1.1,1.36,1.36,0,0,1,.6-1.14,2.48,2.48,0,0,1,1.52-.44,2.29,2.29,0,0,1,1.53.5,1.49,1.49,0,0,1,.57,1.23v0H89.14a.83.83,0,0,0-.26-.64,1,1,0,0,0-.74-.24,1.09,1.09,0,0,0-.71.2.64.64,0,0,0-.25.52.56.56,0,0,0,.27.47,3.73,3.73,0,0,0,.92.39,3.57,3.57,0,0,1,1.43.69,1.44,1.44,0,0,1,.48,1.13,1.35,1.35,0,0,1-.58,1.15,2.52,2.52,0,0,1-1.52.42,2.78,2.78,0,0,1-1.62-.48,1.49,1.49,0,0,1-.67-1.34v0H87a.88.88,0,0,0,.31.74,1.4,1.4,0,0,0,.87.24,1.14,1.14,0,0,0,.71-.19A.62.62,0,0,0,89.14,127.85Z" fill="#3f3f3f"/><path d="M92.41,124.07v1h.71v.8h-.71v2.15a.5.5,0,0,0,.1.35.36.36,0,0,0,.27.11h.15l.15,0,.1.82-.34.09a2,2,0,0,1-.36,0,1.22,1.22,0,0,1-.91-.32,1.42,1.42,0,0,1-.32-1v-2.16h-.62v-.8h.62v-1Z" fill="#3f3f3f"/><path d="M96.07,126.09h-.42a.76.76,0,0,0-.42.11.67.67,0,0,0-.25.3v2.86H93.84v-4.23H94.9l.05.63a1.33,1.33,0,0,1,.38-.52.86.86,0,0,1,.54-.19H96l.15,0Z" fill="#3f3f3f"/><path d="M98.52,129.42a1.9,1.9,0,0,1-1.46-.59,2.09,2.09,0,0,1-.55-1.49v-.16a2.31,2.31,0,0,1,.52-1.55,1.93,1.93,0,0,1,2.72-.09,2,2,0,0,1,.47,1.4v.62H97.69v0a1.09,1.09,0,0,0,.28.68.87.87,0,0,0,.67.27,2.19,2.19,0,0,0,.63-.08,2.89,2.89,0,0,0,.55-.24l.31.71a2.11,2.11,0,0,1-.68.35A2.93,2.93,0,0,1,98.52,129.42Zm-.1-3.51a.59.59,0,0,0-.5.24,1.26,1.26,0,0,0-.23.64v0h1.4v-.1a.91.91,0,0,0-.17-.58A.61.61,0,0,0,98.41,125.91Z" fill="#3f3f3f"/><path d="M102.75,129.42a1.9,1.9,0,0,1-1.46-.59,2.09,2.09,0,0,1-.55-1.49v-.16a2.31,2.31,0,0,1,.52-1.55,1.93,1.93,0,0,1,2.72-.09,2,2,0,0,1,.47,1.4v.62h-2.52v0a1.09,1.09,0,0,0,.28.68.87.87,0,0,0,.67.27,2.19,2.19,0,0,0,.63-.08,2.89,2.89,0,0,0,.55-.24l.31.71a2.11,2.11,0,0,1-.68.35A2.93,2.93,0,0,1,102.75,129.42Zm-.1-3.51a.59.59,0,0,0-.5.24,1.26,1.26,0,0,0-.23.64v0h1.4v-.1a.91.91,0,0,0-.17-.58A.61.61,0,0,0,102.65,125.91Z" fill="#3f3f3f"/><path d="M106.47,124.07v1h.71v.8h-.71v2.15a.5.5,0,0,0,.1.35.36.36,0,0,0,.27.11H107l.15,0,.1.82-.34.09a2,2,0,0,1-.36,0,1.22,1.22,0,0,1-.91-.32,1.42,1.42,0,0,1-.32-1v-2.16h-.62v-.8h.62v-1Z" fill="#3f3f3f"/><path d="M110,129.33v-5.69h1.92a2.72,2.72,0,0,1,1.57.39,1.33,1.33,0,0,1,.56,1.17,1.23,1.23,0,0,1-.21.71,1.26,1.26,0,0,1-.61.47,1.2,1.2,0,0,1,.77.47,1.4,1.4,0,0,1,.26.83,1.47,1.47,0,0,1-.54,1.24,2.44,2.44,0,0,1-1.53.42Zm1.14-3.3H112a1.14,1.14,0,0,0,.7-.19.65.65,0,0,0,.25-.55.68.68,0,0,0-.25-.58,1.22,1.22,0,0,0-.74-.19h-.78Zm0,.79v1.64h1.05a1.06,1.06,0,0,0,.69-.2.71.71,0,0,0,.24-.58.91.91,0,0,0-.2-.64.83.83,0,0,0-.64-.22Z" fill="#3f3f3f"/><path d="M116.23,124.1h-1.14v-.86h1.14Zm0,5.24h-1.14v-4.23h1.14Z" fill="#3f3f3f"/><path d="M118.62,127.56h-.31v1.77h-1.14v-6.09h1.14v3.46h.28l1-1.59h1.32L119.54,127l1.56,2.31h-1.31Z" fill="#3f3f3f"/><path d="M123.23,129.42a1.9,1.9,0,0,1-1.46-.59,2.09,2.09,0,0,1-.55-1.49v-.16a2.31,2.31,0,0,1,.52-1.55,1.93,1.93,0,0,1,2.72-.09,2,2,0,0,1,.47,1.4v.62h-2.52v0a1.09,1.09,0,0,0,.28.68.87.87,0,0,0,.67.27,2.19,2.19,0,0,0,.63-.08,2.89,2.89,0,0,0,.55-.24l.31.71a2.11,2.11,0,0,1-.68.35A2.93,2.93,0,0,1,123.23,129.42Zm-.1-3.51a.59.59,0,0,0-.5.24,1.26,1.26,0,0,0-.23.64v0h1.4v-.1a.91.91,0,0,0-.17-.58A.61.61,0,0,0,123.13,125.91Z" fill="#3f3f3f"/><path d="M128.83,128.46h2.53v.88h-3.67v-5.69h1.14Z" fill="#3f3f3f"/><path d="M134.4,129.33a2.44,2.44,0,0,1-.11-.3,2.07,2.07,0,0,1-.06-.33,1.58,1.58,0,0,1-.46.51,1.16,1.16,0,0,1-.69.2,1.43,1.43,0,0,1-1-.34,1.23,1.23,0,0,1-.36-.93,1.11,1.11,0,0,1,.48-1,2.38,2.38,0,0,1,1.4-.34h.64v-.34A.66.66,0,0,0,134,126a.75.75,0,0,0-.9,0,.48.48,0,0,0-.15.37h-1.1v0a1.07,1.07,0,0,1,.46-.92,2,2,0,0,1,1.29-.39,1.89,1.89,0,0,1,1.23.38,1.33,1.33,0,0,1,.47,1.1v1.75a3.28,3.28,0,0,0,0,.56,2.82,2.82,0,0,0,.14.52Zm-1-.76a1,1,0,0,0,.54-.15.78.78,0,0,0,.32-.34v-.6h-.64a.76.76,0,0,0-.55.18.59.59,0,0,0-.19.44.44.44,0,0,0,.14.34A.55.55,0,0,0,133.36,128.57Z" fill="#3f3f3f"/><path d="M137.26,125.11l.05.61a1.54,1.54,0,0,1,.52-.5,1.35,1.35,0,0,1,.69-.18,1.27,1.27,0,0,1,1,.4,1.86,1.86,0,0,1,.36,1.26v2.64h-1.14v-2.64a.86.86,0,0,0-.17-.61.69.69,0,0,0-.52-.18.88.88,0,0,0-.41.09.84.84,0,0,0-.3.26v3.07H136.2v-4.23Z" fill="#3f3f3f"/><path d="M142.6,129.42a1.9,1.9,0,0,1-1.46-.59,2.1,2.1,0,0,1-.55-1.49v-.16a2.32,2.32,0,0,1,.52-1.55,1.93,1.93,0,0,1,2.72-.09,2,2,0,0,1,.47,1.4v.62h-2.52v0a1.09,1.09,0,0,0,.28.68.87.87,0,0,0,.67.27,2.19,2.19,0,0,0,.63-.08,2.89,2.89,0,0,0,.55-.24l.31.71a2.12,2.12,0,0,1-.68.35A2.93,2.93,0,0,1,142.6,129.42Zm-.1-3.51a.59.59,0,0,0-.5.24,1.26,1.26,0,0,0-.23.64v0h1.4v-.1a.91.91,0,0,0-.17-.58A.61.61,0,0,0,142.5,125.91Z" fill="#3f3f3f"/><path d="M147.25,128.17a.4.4,0,0,0-.18-.32,1.84,1.84,0,0,0-.67-.24,2.71,2.71,0,0,1-1.13-.45,1,1,0,0,1-.38-.81,1.17,1.17,0,0,1,.46-.93,1.86,1.86,0,0,1,1.23-.38,2,2,0,0,1,1.29.38,1.12,1.12,0,0,1,.46,1v0h-1.1A.56.56,0,0,0,147,126a.78.78,0,0,0-.91,0,.43.43,0,0,0-.16.34.39.39,0,0,0,.17.32,1.82,1.82,0,0,0,.67.22,2.72,2.72,0,0,1,1.16.46,1,1,0,0,1,.38.83,1.11,1.11,0,0,1-.49.93,2.12,2.12,0,0,1-1.29.36,2,2,0,0,1-1.33-.43,1.2,1.2,0,0,1-.47-1v0h1a.59.59,0,0,0,.22.49.92.92,0,0,0,.55.15.79.79,0,0,0,.48-.12A.41.41,0,0,0,147.25,128.17Z" fill="#3f3f3f"/><path d="M68.25,137v1.55H67.4v-4.27h1.7a1.68,1.68,0,0,1,1.16.38,1.36,1.36,0,0,1,0,2,1.69,1.69,0,0,1-1.16.37Zm0-.66h.84a.71.71,0,0,0,.54-.2.69.69,0,0,0,.18-.5.73.73,0,0,0-.18-.51.7.7,0,0,0-.54-.2h-.84Z" fill="#3f3f3f"/><path d="M73.06,138.53a1.8,1.8,0,0,1-.08-.23,1.59,1.59,0,0,1,0-.25,1.18,1.18,0,0,1-.35.38.87.87,0,0,1-.51.15,1.07,1.07,0,0,1-.77-.26.92.92,0,0,1-.27-.7.84.84,0,0,1,.36-.72,1.79,1.79,0,0,1,1-.26h.48v-.25a.5.5,0,0,0-.12-.36.56.56,0,0,0-.68,0,.36.36,0,0,0-.11.28h-.83v0a.8.8,0,0,1,.35-.69,1.52,1.52,0,0,1,1-.29,1.42,1.42,0,0,1,.92.29,1,1,0,0,1,.35.82v1.31a2.49,2.49,0,0,0,0,.42,2.09,2.09,0,0,0,.11.39Zm-.78-.57a.73.73,0,0,0,.4-.11.58.58,0,0,0,.24-.26v-.45h-.48a.57.57,0,0,0-.41.14.44.44,0,0,0-.14.33.33.33,0,0,0,.11.25A.41.41,0,0,0,72.28,138Z" fill="#3f3f3f"/><path d="M75.44,134.59v.78H76v.6h-.53v1.61a.37.37,0,0,0,.08.26.27.27,0,0,0,.21.08h.12l.11,0,.07.62-.25.07-.27,0a.91.91,0,0,1-.68-.24,1.06,1.06,0,0,1-.24-.77V136h-.46v-.6h.46v-.78Z" fill="#3f3f3f"/><path d="M77.35,135.77a1.09,1.09,0,0,1,.37-.34,1.05,1.05,0,0,1,1.26.21,1.54,1.54,0,0,1,.28,1v1.88h-.86v-1.89a.81.81,0,0,0-.13-.52.48.48,0,0,0-.39-.15.73.73,0,0,0-.31.06.6.6,0,0,0-.22.18v2.33H76.5V134h.86Z" fill="#3f3f3f"/><path d="M84.42,134.93H83.21v3.61h-.86v-3.61h-1.2v-.66h3.26Z" fill="#3f3f3f"/><path d="M85.68,137.2l0,.18h0l.61-2h.92L86,139a1.68,1.68,0,0,1-.37.57.94.94,0,0,1-.69.23l-.2,0-.22-.05.1-.62h.16a.47.47,0,0,0,.33-.1.68.68,0,0,0,.18-.26l.1-.25-1.12-3.17h.92Z" fill="#3f3f3f"/><path d="M90.46,137a1.82,1.82,0,0,1-.33,1.13,1.08,1.08,0,0,1-.91.43,1,1,0,0,1-.44-.09.91.91,0,0,1-.33-.27v1.52H87.6v-4.39h.77l0,.38a1,1,0,0,1,.34-.32.92.92,0,0,1,.46-.11,1.06,1.06,0,0,1,.91.46,2,2,0,0,1,.33,1.21Zm-.86-.07a1.54,1.54,0,0,0-.15-.73A.49.49,0,0,0,89,136a.65.65,0,0,0-.33.08.57.57,0,0,0-.22.23v1.39a.52.52,0,0,0,.22.21.73.73,0,0,0,.34.07.49.49,0,0,0,.46-.24,1.29,1.29,0,0,0,.15-.66Z" fill="#3f3f3f"/><path d="M92.39,138.6a1.43,1.43,0,0,1-1.1-.44,1.57,1.57,0,0,1-.41-1.12v-.12a1.73,1.73,0,0,1,.39-1.16,1.45,1.45,0,0,1,2-.07,1.49,1.49,0,0,1,.35,1v.46H91.78v0a.82.82,0,0,0,.21.51.65.65,0,0,0,.51.2,1.65,1.65,0,0,0,.47-.06,2.16,2.16,0,0,0,.41-.18l.23.53a1.56,1.56,0,0,1-.51.26A2.18,2.18,0,0,1,92.39,138.6ZM92.32,136a.45.45,0,0,0-.37.18.94.94,0,0,0-.17.48v0h1v-.08a.69.69,0,0,0-.13-.44A.46.46,0,0,0,92.32,136Z" fill="#3f3f3f"/><path d="M95.12,136h-.86v-.75h.86Zm0,2.57h-.86v-.75h.86Z" fill="#3f3f3f"/><path d="M97.56,138.53v-4.27H99a1.69,1.69,0,0,1,1,.29,1,1,0,0,1,.38.87.79.79,0,0,1-.18.51,1.08,1.08,0,0,1-.48.33,1,1,0,0,1,.61.38,1.12,1.12,0,0,1,.22.69,1.09,1.09,0,0,1-.38.89,1.58,1.58,0,0,1-1,.31Zm.58-2.45h.93a.77.77,0,0,0,.52-.18.62.62,0,0,0,.2-.49.62.62,0,0,0-.22-.52,1,1,0,0,0-.63-.17h-.81Zm0,.45v1.54h1a.89.89,0,0,0,.61-.2.69.69,0,0,0,.22-.55.87.87,0,0,0-.18-.59.71.71,0,0,0-.56-.21Z" fill="#3f3f3f"/><path d="M101.91,134.55h-.58V134h.58Zm0,4h-.58v-3.17h.58Z" fill="#3f3f3f"/><path d="M103.76,137.07h-.37v1.47h-.58V134h.58v2.65h.37l.87-1.25h.69l-1.08,1.44,1.24,1.73h-.68Z" fill="#3f3f3f"/><path d="M107.13,138.6a1.34,1.34,0,0,1-1.05-.44,1.66,1.66,0,0,1-.39-1.14v-.13a1.62,1.62,0,0,1,.4-1.13,1.24,1.24,0,0,1,1-.45,1.2,1.2,0,0,1,1,.39,1.54,1.54,0,0,1,.33,1v.36h-2.07a1.25,1.25,0,0,0,.23.75.74.74,0,0,0,.62.29,1.45,1.45,0,0,0,.51-.08,1.18,1.18,0,0,0,.38-.23l.23.38a1.34,1.34,0,0,1-.45.28A1.77,1.77,0,0,1,107.13,138.6Zm-.09-2.84a.62.62,0,0,0-.5.24,1.15,1.15,0,0,0-.25.61h1.47v-.08a.88.88,0,0,0-.18-.57A.65.65,0,0,0,107,135.76Z" fill="#3f3f3f"/><path d="M111.17,138.08h2v.45h-2.6v-4.27h.58Z" fill="#3f3f3f"/><path d="M115.67,138.53c0-.1,0-.18,0-.25a1.87,1.87,0,0,1,0-.22,1.35,1.35,0,0,1-.42.38,1.08,1.08,0,0,1-.56.15,1,1,0,0,1-.75-.25.93.93,0,0,1-.26-.7.82.82,0,0,1,.37-.71,1.72,1.72,0,0,1,1-.26h.63v-.31a.58.58,0,0,0-.17-.44.67.67,0,0,0-.48-.16.69.69,0,0,0-.45.14.43.43,0,0,0-.17.34h-.55v0a.77.77,0,0,1,.33-.63,1.34,1.34,0,0,1,.89-.29,1.31,1.31,0,0,1,.87.27,1,1,0,0,1,.33.79v1.53a3,3,0,0,0,0,.33,1.69,1.69,0,0,0,.06.31Zm-1-.42a1,1,0,0,0,.57-.16.76.76,0,0,0,.33-.37v-.51H115a.84.84,0,0,0-.56.17.52.52,0,0,0-.21.41.43.43,0,0,0,.13.33A.55.55,0,0,0,114.71,138.11Z" fill="#3f3f3f"/><path d="M117.54,135.36l0,.47a1.15,1.15,0,0,1,.4-.39,1.06,1.06,0,0,1,.54-.14,1,1,0,0,1,.79.3,1.32,1.32,0,0,1,.28.93v2H119v-2a.86.86,0,0,0-.17-.6.66.66,0,0,0-.51-.18.81.81,0,0,0-.44.12.88.88,0,0,0-.31.33v2.31H117v-3.17Z" fill="#3f3f3f"/><path d="M121.75,138.6a1.34,1.34,0,0,1-1.05-.44,1.66,1.66,0,0,1-.39-1.14v-.13a1.62,1.62,0,0,1,.4-1.13,1.24,1.24,0,0,1,1-.45,1.2,1.2,0,0,1,1,.39,1.54,1.54,0,0,1,.33,1v.36h-2.07a1.25,1.25,0,0,0,.23.75.74.74,0,0,0,.62.29,1.45,1.45,0,0,0,.51-.08,1.18,1.18,0,0,0,.38-.23l.23.38a1.34,1.34,0,0,1-.45.28A1.77,1.77,0,0,1,121.75,138.6Zm-.09-2.84a.62.62,0,0,0-.5.24,1.15,1.15,0,0,0-.25.61h1.47v-.08a.88.88,0,0,0-.18-.57A.65.65,0,0,0,121.66,135.76Z" fill="#3f3f3f"/><path d="M125.45,137.69a.39.39,0,0,0-.15-.31,1.36,1.36,0,0,0-.55-.21,2.33,2.33,0,0,1-.87-.34.69.69,0,0,1-.29-.59.83.83,0,0,1,.33-.66,1.49,1.49,0,0,1,1.74,0,.84.84,0,0,1,.31.69v0h-.55a.51.51,0,0,0-.17-.37.64.64,0,0,0-.46-.17.67.67,0,0,0-.46.13.42.42,0,0,0-.15.32.36.36,0,0,0,.13.3,1.37,1.37,0,0,0,.54.19,2.31,2.31,0,0,1,.89.35.71.71,0,0,1,.29.59.82.82,0,0,1-.34.68,1.43,1.43,0,0,1-.89.26,1.39,1.39,0,0,1-1-.31.88.88,0,0,1-.33-.72v0h.55a.53.53,0,0,0,.23.45.89.89,0,0,0,.5.14.82.82,0,0,0,.48-.12A.38.38,0,0,0,125.45,137.69Z" fill="#3f3f3f"/><circle cx="181.75" cy="53.75" r="19.5" fill="#387ef5" stroke="#8e8e8e" stroke-miterlimit="10"/><line x1="181.75" y1="48" x2="181.75" y2="60.25" fill="none" stroke="#fff" stroke-miterlimit="10"/><line x1="175.63" y1="54.12" x2="187.88" y2="54.13" fill="none" stroke="#fff" stroke-miterlimit="10"/><circle cx="173.75" cy="206.08" r="2.75" fill="#e63900" stroke="#fff" stroke-miterlimit="10"/><circle cx="84.75" cy="43.08" r="2.75" fill="#e63900" stroke="#fff" stroke-miterlimit="10"/></g><circle cx="125" cy="125" r="121.13" fill="none" stroke="#ededed" stroke-miterlimit="10" stroke-width="6"/></svg>