<svg xmlns="http://www.w3.org/2000/svg" xmlns:xlink="http://www.w3.org/1999/xlink" viewBox="0 0 250 250"><defs><clipPath id="a"><circle cx="125" cy="125" r="118.75" fill="none"/></clipPath></defs><title>Artboard 1</title><circle cx="125" cy="125" r="118.75" fill="#f9f9f9"/><g clip-path="url(#a)"><line x1="16.73" y1="3.88" x2="16.73" y2="4.88" fill="none" stroke="#ccc" stroke-miterlimit="10"/><line x1="16.73" y1="6.87" x2="16.73" y2="256.62" fill="none" stroke="#ccc" stroke-miterlimit="10" stroke-dasharray="1.99 1.99"/><line x1="58.92" y1="3.88" x2="58.92" y2="4.88" fill="none" stroke="#ccc" stroke-miterlimit="10"/><line x1="58.92" y1="6.87" x2="58.92" y2="256.62" fill="none" stroke="#ccc" stroke-miterlimit="10" stroke-dasharray="1.99 1.99"/><line x1="101.12" y1="3.88" x2="101.12" y2="4.88" fill="none" stroke="#ccc" stroke-miterlimit="10"/><line x1="101.12" y1="6.87" x2="101.12" y2="256.62" fill="none" stroke="#ccc" stroke-miterlimit="10" stroke-dasharray="1.99 1.99"/><line x1="143.31" y1="3.88" x2="143.31" y2="4.88" fill="none" stroke="#ccc" stroke-miterlimit="10"/><line x1="143.31" y1="6.87" x2="143.31" y2="256.62" fill="none" stroke="#ccc" stroke-miterlimit="10" stroke-dasharray="1.99 1.99"/><line x1="185.5" y1="3.88" x2="185.5" y2="4.88" fill="none" stroke="#ccc" stroke-miterlimit="10"/><line x1="185.5" y1="6.87" x2="185.5" y2="256.62" fill="none" stroke="#ccc" stroke-miterlimit="10" stroke-dasharray="1.99 1.99"/><line x1="227.69" y1="3.88" x2="227.69" y2="4.88" fill="none" stroke="#ccc" stroke-miterlimit="10"/><line x1="227.69" y1="6.87" x2="227.69" y2="256.62" fill="none" stroke="#ccc" stroke-miterlimit="10" stroke-dasharray="1.99 1.99"/><line x1="266.62" y1="5.72" x2="19" y2="5.72" fill="none" stroke="#ccc" stroke-miterlimit="10" stroke-dasharray="2.01 2.01"/><line x1="17.99" y1="5.72" x2="16.99" y2="5.72" fill="none" stroke="#ccc" stroke-miterlimit="10"/><line x1="266.62" y1="47.91" x2="19" y2="47.91" fill="none" stroke="#ccc" stroke-miterlimit="10" stroke-dasharray="2.01 2.01"/><line x1="17.99" y1="47.91" x2="16.99" y2="47.91" fill="none" stroke="#ccc" stroke-miterlimit="10"/><line x1="249.62" y1="90.11" x2="248.62" y2="90.11" fill="none" stroke="#ccc" stroke-miterlimit="10"/><line x1="246.62" y1="90.11" x2="-1" y2="90.11" fill="none" stroke="#ccc" stroke-miterlimit="10" stroke-dasharray="2.01 2.01"/><line x1="249.62" y1="132.3" x2="248.62" y2="132.3" fill="none" stroke="#ccc" stroke-miterlimit="10"/><line x1="246.62" y1="132.3" x2="-1" y2="132.3" fill="none" stroke="#ccc" stroke-miterlimit="10" stroke-dasharray="2.01 2.01"/><line x1="249.62" y1="174.49" x2="248.62" y2="174.49" fill="none" stroke="#ccc" stroke-miterlimit="10"/><line x1="246.62" y1="174.49" x2="-1" y2="174.49" fill="none" stroke="#ccc" stroke-miterlimit="10" stroke-dasharray="2.01 2.01"/><line x1="266.62" y1="216.68" x2="19" y2="216.68" fill="none" stroke="#ccc" stroke-miterlimit="10" stroke-dasharray="2.01 2.01"/><line x1="17.99" y1="216.68" x2="16.99" y2="216.68" fill="none" stroke="#ccc" stroke-miterlimit="10"/><circle cx="16.54" cy="216.23" r="5.14" fill="#fab03b"/><circle cx="59.01" cy="152.25" r="5.14" fill="#fab03b"/><circle cx="101.07" cy="122.65" r="5.14" fill="#fab03b"/><circle cx="143.14" cy="116.42" r="5.14" fill="#fab03b"/><circle cx="185.2" cy="60.34" r="5.14" fill="#fab03b"/><path d="M16.54,216.23s34.65-55.81,42.48-64,31.9-26.1,42.06-29.6,33.28-.38,42.62-5.83,41.5-56.48,41.5-56.48" fill="none" stroke="#fab03b" stroke-miterlimit="10" stroke-width="2"/></g><circle cx="125" cy="125" r="121.13" fill="none" stroke="#ededed" stroke-miterlimit="10" stroke-width="6"/></svg>