<svg xmlns="http://www.w3.org/2000/svg" xmlns:xlink="http://www.w3.org/1999/xlink" viewBox="0 0 250 250"><defs><clipPath id="a"><circle cx="125" cy="125" r="118.75" fill="none"/></clipPath></defs><title>Artboard 1</title><circle cx="125" cy="125" r="118.75" fill="#f8f4f0"/><g clip-path="url(#a)"><rect x="123.75" y="88.08" width="14.58" height="11.25" fill="#d7e8c8"/><rect x="167" y="113.75" width="27" height="22.75" fill="#d7e8c8"/><rect x="41.25" y="11.75" width="43.75" height="40.5" fill="#d7e8c8"/><polyline points="248.33 176.79 314.58 176.79 314.58 250" fill="none" stroke="#fab03b" stroke-miterlimit="10" stroke-width="3"/><line x1="41.67" y1="16.5" x2="41.67" y2="143.17" fill="none" stroke="#b5b5b5" stroke-miterlimit="10"/><line x1="6.5" y1="99.8" x2="243.75" y2="99.8" fill="none" stroke="#b5b5b5" stroke-miterlimit="10" stroke-width="2"/><line x1="166.59" y1="11.21" x2="166.59" y2="136.33" fill="none" stroke="#b5b5b5" stroke-miterlimit="10" stroke-width="2"/><line x1="41.67" y1="53.33" x2="225.33" y2="53.33" fill="none" stroke="#b5b5b5" stroke-miterlimit="10" stroke-width="2"/><line x1="194.4" y1="25.72" x2="194.4" y2="99.8" fill="none" stroke="#b5b5b5" stroke-miterlimit="10"/><line x1="85.28" y1="10.54" x2="85.28" y2="131.5" fill="none" stroke="#b5b5b5" stroke-miterlimit="10" stroke-width="2"/><line x1="124" y1="3.88" x2="124" y2="99.8" fill="none" stroke="#b5b5b5" stroke-miterlimit="10"/><line x1="15.45" y1="79.08" x2="86" y2="79.08" fill="none" stroke="#b5b5b5" stroke-miterlimit="10"/><line x1="70" y1="53.33" x2="70" y2="99.8" fill="none" stroke="#b5b5b5" stroke-miterlimit="10"/><line x1="77.75" y1="53.33" x2="77.75" y2="99.8" fill="none" stroke="#b5b5b5" stroke-miterlimit="10"/><line x1="60.75" y1="88.5" x2="85.28" y2="88.5" fill="none" stroke="#b5b5b5" stroke-miterlimit="10"/><line x1="86" y1="79.08" x2="236.5" y2="79.08" fill="none" stroke="#b5b5b5" stroke-miterlimit="10"/><line x1="85.28" y1="88.5" x2="242.25" y2="88.5" fill="none" stroke="#b5b5b5" stroke-miterlimit="10"/><line x1="194.4" y1="98.75" x2="194.4" y2="133.75" fill="none" stroke="#b5b5b5" stroke-miterlimit="10"/><line x1="41.67" y1="114" x2="246.13" y2="114" fill="none" stroke="#b5b5b5" stroke-miterlimit="10"/><line x1="5" y1="122.5" x2="167" y2="122.5" fill="none" stroke="#b5b5b5" stroke-miterlimit="10"/><line x1="216.25" y1="100" x2="216.25" y2="50" fill="none" stroke="#b5b5b5" stroke-miterlimit="10"/><line x1="138.25" y1="6.25" x2="138.25" y2="122.5" fill="none" stroke="#b5b5b5" stroke-miterlimit="10"/><line x1="105.27" y1="7.88" x2="105.27" y2="122.5" fill="none" stroke="#b5b5b5" stroke-miterlimit="10"/><line x1="248.43" y1="18.97" x2="248.43" y2="130.5" fill="none" stroke="#b5b5b5" stroke-miterlimit="10"/><line x1="25.69" y1="59.87" x2="25.69" y2="130" fill="none" stroke="#b5b5b5" stroke-miterlimit="10"/><rect y="129.33" width="250" height="120.67" fill="#fff"/><path d="M56.81,143.73H54v8.42H52v-8.42h-2.8v-1.54h7.62Z" fill="#3f3f3f"/><path d="M56.81,148.38a4,4,0,0,1,.92-2.71,3.22,3.22,0,0,1,2.56-1.06,3.25,3.25,0,0,1,2.57,1.05,4,4,0,0,1,.93,2.71v.14a4,4,0,0,1-.93,2.72,3.65,3.65,0,0,1-5.13,0,4,4,0,0,1-.93-2.72Zm2,.14a3.21,3.21,0,0,0,.36,1.62,1.37,1.37,0,0,0,2.28,0,3.19,3.19,0,0,0,.36-1.62v-.14a3.15,3.15,0,0,0-.36-1.6,1.23,1.23,0,0,0-1.14-.62,1.21,1.21,0,0,0-1.13.62,3.19,3.19,0,0,0-.36,1.6Z" fill="#3f3f3f"/><path d="M64.72,148.51a4.81,4.81,0,0,1,.76-2.82,2.45,2.45,0,0,1,2.13-1.07,2.06,2.06,0,0,1,1,.24,2.39,2.39,0,0,1,.78.68v-4.05h2v10.66H69.67l-.16-.9a2.45,2.45,0,0,1-.82.78,2.19,2.19,0,0,1-1.09.27,2.5,2.5,0,0,1-2.12-1,4.26,4.26,0,0,1-.76-2.64Zm2,.14a3,3,0,0,0,.33,1.54,1.14,1.14,0,0,0,1.07.56,1.54,1.54,0,0,0,.75-.18,1.39,1.39,0,0,0,.53-.51v-3.17a1.55,1.55,0,0,0-.52-.55,1.39,1.39,0,0,0-.74-.2,1.13,1.13,0,0,0-1.07.65,3.71,3.71,0,0,0-.34,1.71Z" fill="#3f3f3f"/><path d="M77.27,152.15a4.23,4.23,0,0,1-.19-.53A3.78,3.78,0,0,1,77,151a2.76,2.76,0,0,1-.81.9,2,2,0,0,1-1.2.36,2.5,2.5,0,0,1-1.79-.6,2.14,2.14,0,0,1-.63-1.63,2,2,0,0,1,.84-1.69,4.18,4.18,0,0,1,2.44-.6h1.11v-.59a1.15,1.15,0,0,0-.28-.83,1.31,1.31,0,0,0-1.58-.06.83.83,0,0,0-.26.65H72.88v0a1.88,1.88,0,0,1,.81-1.62,3.55,3.55,0,0,1,2.26-.68,3.31,3.31,0,0,1,2.15.67,2.33,2.33,0,0,1,.83,1.92v3.06a5.8,5.8,0,0,0,.08,1,4.92,4.92,0,0,0,.25.91Zm-1.83-1.33a1.72,1.72,0,0,0,.94-.26,1.36,1.36,0,0,0,.55-.6v-1H75.82a1.33,1.33,0,0,0-1,.32,1,1,0,0,0-.33.77.77.77,0,0,0,.25.59A1,1,0,0,0,75.44,150.81Z" fill="#3f3f3f"/><path d="M83,149l.08.41h0l1.42-4.7h2.15l-3,8.5a3.92,3.92,0,0,1-.85,1.34,2.19,2.19,0,0,1-1.62.54,2.51,2.51,0,0,1-.47,0l-.52-.12.23-1.46.19,0h.18a1.09,1.09,0,0,0,.76-.24,1.6,1.6,0,0,0,.41-.6l.23-.57-2.62-7.39h2.15Z" fill="#3f3f3f"/><path d="M95.31,152.15a4.23,4.23,0,0,1-.19-.53A3.78,3.78,0,0,1,95,151a2.76,2.76,0,0,1-.81.9,2,2,0,0,1-1.2.36,2.5,2.5,0,0,1-1.79-.6,2.14,2.14,0,0,1-.63-1.63,2,2,0,0,1,.84-1.69,4.18,4.18,0,0,1,2.44-.6H95v-.59a1.15,1.15,0,0,0-.28-.83,1.31,1.31,0,0,0-1.58-.06.83.83,0,0,0-.26.65H90.92v0a1.88,1.88,0,0,1,.81-1.62,3.55,3.55,0,0,1,2.26-.68,3.31,3.31,0,0,1,2.15.67,2.33,2.33,0,0,1,.83,1.92v3.06a5.8,5.8,0,0,0,.08,1,4.92,4.92,0,0,0,.25.91Zm-1.83-1.33a1.72,1.72,0,0,0,.94-.26A1.36,1.36,0,0,0,95,150v-1H93.86a1.33,1.33,0,0,0-1,.32,1,1,0,0,0-.33.77.77.77,0,0,0,.25.59A1,1,0,0,0,93.48,150.81Z" fill="#3f3f3f"/><path d="M100.86,142.94v1.81h1.24v1.4h-1.24v3.77a.87.87,0,0,0,.18.62.63.63,0,0,0,.48.18l.27,0,.26-.06.17,1.44a4,4,0,0,1-.59.15,3.54,3.54,0,0,1-.62.05,2.13,2.13,0,0,1-1.59-.57,2.49,2.49,0,0,1-.56-1.8v-3.77H97.78v-1.4h1.08v-1.81Z" fill="#3f3f3f"/><path d="M111.28,152.15h-2V144h-2v-1.41l4-.36Z" fill="#3f3f3f"/><path d="M117.11,146.16h-2v-1.75h2Zm0,6h-2V150.4h2Z" fill="#3f3f3f"/><path d="M125.58,152.15h-6.79v-1.31l3.22-3.45a7.8,7.8,0,0,0,1-1.35,2.18,2.18,0,0,0,.29-1,1.54,1.54,0,0,0-.34-1,1.19,1.19,0,0,0-1-.4,1.24,1.24,0,0,0-1,.47,2,2,0,0,0-.36,1.25h-1.94v0a3,3,0,0,1,.88-2.28,3.32,3.32,0,0,1,2.48-.93,3.45,3.45,0,0,1,2.42.8,2.74,2.74,0,0,1,.88,2.13,3,3,0,0,1-.5,1.66,16.4,16.4,0,0,1-1.64,2l-1.77,1.93v0h4.18Z" fill="#3f3f3f"/><path d="M133.61,152.15h-6.79v-1.31l3.22-3.45a7.8,7.8,0,0,0,1-1.35,2.18,2.18,0,0,0,.29-1,1.54,1.54,0,0,0-.34-1,1.19,1.19,0,0,0-1-.4,1.24,1.24,0,0,0-1,.47,2,2,0,0,0-.36,1.25h-1.94v0a3,3,0,0,1,.88-2.28,3.32,3.32,0,0,1,2.48-.93,3.45,3.45,0,0,1,2.42.8,2.74,2.74,0,0,1,.88,2.13,3,3,0,0,1-.5,1.66,16.4,16.4,0,0,1-1.64,2l-1.77,1.93v0h4.18Z" fill="#3f3f3f"/><path d="M140.58,148.54v3.61h-2v-10h4a3.92,3.92,0,0,1,2.7.88,3.18,3.18,0,0,1,0,4.6,3.94,3.94,0,0,1-2.7.87Zm0-1.54h2a1.66,1.66,0,0,0,1.26-.46,1.62,1.62,0,0,0,.43-1.16,1.69,1.69,0,0,0-.43-1.19,1.63,1.63,0,0,0-1.27-.47h-2Z" fill="#3f3f3f"/><path d="M150.31,142.19l2.54,7.33h0l2.56-7.33h2.61v10h-2v-3l.19-4.4h0l-2.67,7.37H152.2l-2.65-7.34h0l.19,4.37v3h-2v-10Z" fill="#3f3f3f"/><path d="M199.91,144c-.1-.36-.16-.56-.16-.56-.1-.37-.37-.37-.76-.44l-2.12-.27c-.26,0-.26,0-.37-.27-.35-.78-.46-1.24-.84-1.24h-4.12c-.38,0-.48.46-.83,1.24-.1.22-.1.22-.37.27l-2.13.27c-.39.06-.67.1-.77.47l-.15.52c-.13.48-.18.42.26.42h12.1C200.09,144.45,200,144.5,199.91,144Z" fill="#3f3f3f"/><path d="M198.54,145.73h-9.87c-.66,0-.7.09-.66.59l.75,9.7c.06.49.11.59.7.59h8.29c.59,0,.64-.1.7-.59l.75-9.7C199.23,145.81,199.2,145.73,198.54,145.73Z" fill="#3f3f3f"/><path d="M57,178.67h1.92v-5.23H57Z" fill="#3f3f3f"/><path d="M64,173.21,65.26,172l-1.36-1.36-1.23,1.23A7.68,7.68,0,1,0,64,173.21Zm-1.82,9A6,6,0,1,1,64,177.92,6,6,0,0,1,62.2,182.17Z" fill="#3f3f3f"/><rect x="55.4" y="167.68" width="5.12" height="1.92" fill="#3f3f3f"/><path d="M153.92,208.85a9,9,0,1,0-8.84,9.08A9,9,0,0,0,153.92,208.85Zm-9-5.64a1.28,1.28,0,1,1-1.28,1.28A1.28,1.28,0,0,1,145,203.21Zm1.76,11.32H143.2v-.44h.88v-6.4h-.88v-.48h2.64v6.88h.88Z" fill="#387ef5"/><path d="M64.64,208.06s0-.1,0-.14a4.67,4.67,0,0,0-4.63-4.7,4.61,4.61,0,0,0-4.17,2.68,2.37,2.37,0,0,0-1.07-.26,2.4,2.4,0,0,0-2.35,2,3.64,3.64,0,0,0,1.15,7.08h4.1v-3.2H55.75L59,208.19l3.21,3.34H60.24v3.2h4.41a3.33,3.33,0,0,0,0-6.67Z" fill="#d91e18"/><path d="M131.4,167.68A6.36,6.36,0,0,0,125,174c0,4.7,6.4,11.65,6.4,11.65s6.4-6.94,6.4-11.65A6.36,6.36,0,0,0,131.4,167.68Zm0,8.51a2.24,2.24,0,1,1,2.29-2.24A2.24,2.24,0,0,1,131.4,176.19Z" fill="#3f3f3f"/><path d="M74.92,176.88a3.51,3.51,0,0,1-.66,2.3,2.48,2.48,0,0,1-3.64,0,3.48,3.48,0,0,1-.67-2.29V175a3.5,3.5,0,0,1,.67-2.3,2.46,2.46,0,0,1,3.64,0,3.49,3.49,0,0,1,.67,2.3Zm-1.06-2.08a2.61,2.61,0,0,0-.37-1.53,1.36,1.36,0,0,0-2.13,0A2.63,2.63,0,0,0,71,174.8v2.29a2.62,2.62,0,0,0,.37,1.53,1.23,1.23,0,0,0,1.07.52,1.21,1.21,0,0,0,1.06-.52,2.66,2.66,0,0,0,.36-1.53Z" fill="#3f3f3f"/><path d="M81.12,176.88a3.51,3.51,0,0,1-.66,2.3,2.48,2.48,0,0,1-3.64,0,3.48,3.48,0,0,1-.67-2.29V175a3.5,3.5,0,0,1,.67-2.3,2.46,2.46,0,0,1,3.64,0,3.49,3.49,0,0,1,.67,2.3Zm-1.06-2.08a2.61,2.61,0,0,0-.37-1.53,1.36,1.36,0,0,0-2.13,0,2.63,2.63,0,0,0-.37,1.53v2.29a2.62,2.62,0,0,0,.37,1.53,1.23,1.23,0,0,0,1.07.52,1.21,1.21,0,0,0,1.06-.52,2.66,2.66,0,0,0,.36-1.53Z" fill="#3f3f3f"/><path d="M83.65,175.15H82.59v-1.1h1.06Zm0,4.71H82.59v-1.1h1.06Z" fill="#3f3f3f"/><path d="M88.16,179.86H87.11v-6.79l-1.6,0v-.76l2.66-.29Z" fill="#3f3f3f"/><path d="M91.64,176.33l.45-4.29H96V173H93l-.26,2.2a2.44,2.44,0,0,1,.55-.3,2.06,2.06,0,0,1,.7-.13,2.1,2.1,0,0,1,1.7.7,2.83,2.83,0,0,1,.62,1.92,2.75,2.75,0,0,1-.63,1.89,2.33,2.33,0,0,1-1.84.71,2.52,2.52,0,0,1-1.65-.54,1.88,1.88,0,0,1-.63-1.6v0h1a1.3,1.3,0,0,0,.37,1,1.33,1.33,0,0,0,1,.35,1.25,1.25,0,0,0,1-.47,2,2,0,0,0,.37-1.29,2,2,0,0,0-.38-1.23,1.24,1.24,0,0,0-1-.48,1.66,1.66,0,0,0-.9.19,1.08,1.08,0,0,0-.41.58Z" fill="#3f3f3f"/><path d="M98.81,175.15H97.76v-1.1h1.06Zm0,4.71H97.76v-1.1h1.06Z" fill="#3f3f3f"/><path d="M104.53,177.23h1.08v.83h-1.08v1.8h-1.05v-1.8H100v-.6l3.45-5.42h1.12Zm-3.44,0h2.38v-3.67h0l-.1.27Z" fill="#3f3f3f"/><path d="M109.52,179.86h-1.06v-6.79l-1.6,0v-.76l2.66-.29Z" fill="#3f3f3f"/><path d="M146.19,177.23h1.08v.83h-1.08v1.8h-1.05v-1.8h-3.51v-.6l3.45-5.42h1.12Zm-3.44,0h2.38v-3.67h0l-.1.27Z" fill="#3f3f3f"/><path d="M149.45,179.86h-1.06v-1.1h1.06Z" fill="#3f3f3f"/><path d="M155.89,174.08a1.74,1.74,0,0,1-.34,1.07,2,2,0,0,1-.93.68,2.35,2.35,0,0,1,1.08.74,1.81,1.81,0,0,1,.41,1.17,2,2,0,0,1-.71,1.66,3.26,3.26,0,0,1-3.68,0,2,2,0,0,1-.7-1.66,1.83,1.83,0,0,1,.4-1.17,2.3,2.3,0,0,1,1.07-.74,2,2,0,0,1-.92-.68,1.78,1.78,0,0,1-.33-1.07,2,2,0,0,1,.64-1.59,2.45,2.45,0,0,1,1.68-.56,2.49,2.49,0,0,1,1.68.56A2,2,0,0,1,155.89,174.08Zm-.84,3.64a1.41,1.41,0,0,0-.42-1.06,1.48,1.48,0,0,0-1.07-.41,1.41,1.41,0,0,0-1.48,1.47,1.35,1.35,0,0,0,.41,1,1.73,1.73,0,0,0,2.16,0A1.34,1.34,0,0,0,155.06,177.72Zm-.22-3.62a1.34,1.34,0,0,0-.36-1,1.3,1.3,0,0,0-1.83,0,1.36,1.36,0,0,0-.35,1,1.31,1.31,0,0,0,.35,1,1.35,1.35,0,0,0,1.83,0A1.3,1.3,0,0,0,154.84,174.1Z" fill="#3f3f3f"/><path d="M161.11,174l.08.76a2,2,0,0,1,.72-.64,2.17,2.17,0,0,1,1-.23,1.8,1.8,0,0,1,1,.27,1.62,1.62,0,0,1,.63.81,2.15,2.15,0,0,1,.73-.78,1.9,1.9,0,0,1,1.05-.29,1.74,1.74,0,0,1,1.4.61,2.78,2.78,0,0,1,.52,1.83v3.48h-1.06v-3.49a1.93,1.93,0,0,0-.3-1.22,1.08,1.08,0,0,0-.88-.36,1.12,1.12,0,0,0-.88.38,1.63,1.63,0,0,0-.39,1v3.73h-1.06v-3.49a1.9,1.9,0,0,0-.3-1.19,1.05,1.05,0,0,0-.87-.38,1.46,1.46,0,0,0-.79.2,1.29,1.29,0,0,0-.48.56v4.3h-1.06V174Z" fill="#3f3f3f"/><path d="M170.92,172.56h-1.06v-1.08h1.06Zm0,7.3h-1.06V174h1.06Z" fill="#3f3f3f"/><path d="M78.35,204.37v5.3a2.38,2.38,0,0,1-.83,2,3.32,3.32,0,0,1-2.17.68,3.13,3.13,0,0,1-2.09-.68,2.41,2.41,0,0,1-.8-2v-5.3h1.06v5.3A1.72,1.72,0,0,0,74,211a1.9,1.9,0,0,0,1.33.46,2.08,2.08,0,0,0,1.4-.46,1.67,1.67,0,0,0,.53-1.34v-5.3Z" fill="#d91e18"/><path d="M81.14,209.05v3.14H80.08v-7.82h3A2.75,2.75,0,0,1,85,205a2.43,2.43,0,0,1,0,3.4,2.77,2.77,0,0,1-1.94.64Zm0-.83h1.93a1.51,1.51,0,1,0,0-3H81.14Z" fill="#d91e18"/><path d="M88.18,211.36h3.7v.83H87.12v-7.82h1.06Z" fill="#d91e18"/><path d="M98.85,209a3.34,3.34,0,0,1-.89,2.38,3,3,0,0,1-2.31.95,2.86,2.86,0,0,1-2.23-.95,3.41,3.41,0,0,1-.86-2.38v-1.39a3.42,3.42,0,0,1,.86-2.38,2.86,2.86,0,0,1,2.23-1,3,3,0,0,1,2.31.95,3.35,3.35,0,0,1,.89,2.38Zm-1.06-1.4a2.64,2.64,0,0,0-.58-1.76,1.93,1.93,0,0,0-1.56-.69,1.79,1.79,0,0,0-1.47.69,2.73,2.73,0,0,0-.55,1.76V209a2.75,2.75,0,0,0,.55,1.77,1.79,1.79,0,0,0,1.47.69,1.94,1.94,0,0,0,1.56-.68,2.66,2.66,0,0,0,.58-1.78Z" fill="#d91e18"/><path d="M104.55,210.17h-3.28l-.74,2H99.46l3-7.82h.91l3,7.82h-1.08Zm-2.95-.89h2.63l-1.29-3.56h0Z" fill="#d91e18"/><path d="M107.44,212.19v-7.82h2.4a3.21,3.21,0,0,1,3.39,3.38v1.07a3.2,3.2,0,0,1-3.39,3.37Zm1.06-7v6.16h1.34a2.16,2.16,0,0,0,1.71-.71,2.67,2.67,0,0,0,.63-1.83v-1.08a2.66,2.66,0,0,0-.63-1.82,2.15,2.15,0,0,0-1.71-.71Z" fill="#d91e18"/><path d="M158.3,212.19v-7.82h2.4a3.21,3.21,0,0,1,3.39,3.38v1.07a3.21,3.21,0,0,1-3.39,3.37Zm1.06-7v6.16h1.34a2.15,2.15,0,0,0,1.71-.71,2.67,2.67,0,0,0,.63-1.83v-1.08a2.65,2.65,0,0,0-.63-1.82,2.16,2.16,0,0,0-1.71-.71Z" fill="#387ef5"/><path d="M170.19,208.56H166.6v2.79h4.13v.83h-5.19v-7.82h5.13v.83H166.6v2.53h3.58Z" fill="#387ef5"/><path d="M177.38,205.2h-2.51v7h-1.06v-7H171.3v-.83h6.08Z" fill="#387ef5"/><path d="M182.19,210.17h-3.28l-.74,2h-1.08l3-7.82H181l3,7.82h-1.08Zm-2.95-.89h2.63l-1.29-3.56h0Z" fill="#387ef5"/><path d="M186.19,212.19h-1.06v-7.82h1.06Z" fill="#387ef5"/><path d="M189.24,211.36h3.7v.83h-4.76v-7.82h1.06Z" fill="#387ef5"/><path d="M198.38,210.22a1.15,1.15,0,0,0-.4-.89,3.4,3.4,0,0,0-1.43-.61,4.73,4.73,0,0,1-1.94-.87,1.8,1.8,0,0,1-.7-1.45,1.9,1.9,0,0,1,.75-1.53,3,3,0,0,1,1.94-.61,2.89,2.89,0,0,1,2,.7,2.08,2.08,0,0,1,.73,1.63v0h-1a1.45,1.45,0,0,0-.45-1.11,2.22,2.22,0,0,0-2.51-.07,1.16,1.16,0,0,0-.42.93,1,1,0,0,0,.46.85,4.34,4.34,0,0,0,1.48.6,4.23,4.23,0,0,1,1.88.9,1.93,1.93,0,0,1,.64,1.48,1.8,1.8,0,0,1-.77,1.52,3.3,3.3,0,0,1-2,.57,3.5,3.5,0,0,1-2.07-.64,1.92,1.92,0,0,1-.87-1.7v0h1a1.31,1.31,0,0,0,.55,1.14,2.31,2.31,0,0,0,1.37.39,2.13,2.13,0,0,0,1.27-.34A1.07,1.07,0,0,0,198.38,210.22Z" fill="#387ef5"/><line x1="60.25" y1="99.8" x2="60.25" y2="53.33" fill="none" stroke="#b5b5b5" stroke-miterlimit="10"/><polyline points="45 53.29 60.75 53.33 60.5 79.25 77 79 105.17 79.08 105 88.5 138.25 88.5 138.08 114 223 113.75" fill="none" stroke="#fab03b" stroke-miterlimit="10" stroke-width="3"/><circle cx="48.56" cy="52.94" r="8.19" fill="#fff" stroke="#bfbfbf" stroke-miterlimit="10"/><circle cx="48.56" cy="52.94" r="6.55" fill="#49ccea"/><circle cx="222.31" cy="113.94" r="8.19" fill="#fff" stroke="#bfbfbf" stroke-miterlimit="10"/><circle cx="222.31" cy="113.94" r="6.55" fill="#21c180"/><path d="M45.72,57V49.25h2.62a3.71,3.71,0,0,1,2.14.53,1.81,1.81,0,0,1,.77,1.59,1.68,1.68,0,0,1-.29,1,1.72,1.72,0,0,1-.83.64,1.65,1.65,0,0,1,1,.64,1.9,1.9,0,0,1,.35,1.13,2,2,0,0,1-.74,1.69,3.32,3.32,0,0,1-2.08.57Zm1.56-4.51H48.4a1.56,1.56,0,0,0,1-.26.88.88,0,0,0,.34-.75.93.93,0,0,0-.34-.79,1.66,1.66,0,0,0-1-.26H47.28Zm0,1.08v2.23h1.43a1.45,1.45,0,0,0,.94-.27,1,1,0,0,0,.32-.79,1.24,1.24,0,0,0-.28-.87,1.14,1.14,0,0,0-.87-.3Z" fill="#fff"/><path d="M223.68,115.87H221l-.53,1.67h-1.57l2.67-7.76h1.59l2.66,7.76H224.2Zm-2.34-1.22h2l-1-3h0Z" fill="#fff"/></g><circle cx="125" cy="125" r="121.13" fill="none" stroke="#ededed" stroke-miterlimit="10" stroke-width="6"/></svg>