<svg xmlns="http://www.w3.org/2000/svg" xmlns:xlink="http://www.w3.org/1999/xlink" viewBox="0 0 250 250"><defs><clipPath id="a"><circle cx="125" cy="125" r="118.75" fill="none"/></clipPath></defs><title>Artboard 1</title><circle cx="125" cy="125" r="118.75" fill="#f9f9f9"/><g clip-path="url(#a)"><rect x="12.33" y="38.5" width="231.42" height="24.67" fill="#f4f4f4"/><rect x="16.17" y="-9.47" width="213.67" height="47.97" fill="#bfbfbf"/><line x1="3.13" y1="63.17" x2="246.88" y2="63.17" fill="none" stroke="#e2e2e2" stroke-miterlimit="10" stroke-width="2"/><path d="M47.19,50.82V54H46.13V46.14h3a2.75,2.75,0,0,1,1.94.64,2.43,2.43,0,0,1,0,3.4,2.77,2.77,0,0,1-1.94.64Zm0-.83h1.93a1.55,1.55,0,0,0,1.18-2.58A1.52,1.52,0,0,0,49.13,47H47.19Z" fill="#3f3f3f"/><path d="M55.73,49.08l-.54,0a1.21,1.21,0,0,0-.71.2,1.27,1.27,0,0,0-.44.56V54H53V48.15h.95L54,49a2,2,0,0,1,.61-.7,1.43,1.43,0,0,1,.84-.25l.23,0,.18,0Z" fill="#3f3f3f"/><path d="M59.06,54.07a2.45,2.45,0,0,1-1.93-.81,3,3,0,0,1-.72-2.1v-.24a3,3,0,0,1,.74-2.07A2.27,2.27,0,0,1,58.9,48a2.2,2.2,0,0,1,1.78.71,2.83,2.83,0,0,1,.6,1.89v.66H57.51l0,0a2.29,2.29,0,0,0,.42,1.37,1.35,1.35,0,0,0,1.14.54,2.65,2.65,0,0,0,.94-.15,2.15,2.15,0,0,0,.7-.42l.41.69a2.45,2.45,0,0,1-.82.51A3.3,3.3,0,0,1,59.06,54.07Zm-.16-5.2a1.15,1.15,0,0,0-.91.45,2.12,2.12,0,0,0-.46,1.12v0h2.68v-.14a1.61,1.61,0,0,0-.33-1A1.19,1.19,0,0,0,58.9,48.87Z" fill="#3f3f3f"/><path d="M62.91,54v-5H62v-.78h.91v-.74A2,2,0,0,1,63.39,46a1.79,1.79,0,0,1,1.36-.51l.37,0,.41.08-.13.81-.23,0-.29,0a.84.84,0,0,0-.69.28,1.24,1.24,0,0,0-.23.8v.74h1.21v.78H64v5Z" fill="#3f3f3f"/><path d="M68.55,54.07a2.45,2.45,0,0,1-1.93-.81,3,3,0,0,1-.72-2.1v-.24a3,3,0,0,1,.74-2.07A2.27,2.27,0,0,1,68.39,48a2.2,2.2,0,0,1,1.78.71,2.83,2.83,0,0,1,.6,1.89v.66H67l0,0a2.29,2.29,0,0,0,.42,1.37,1.35,1.35,0,0,0,1.14.54,2.65,2.65,0,0,0,.94-.15,2.15,2.15,0,0,0,.7-.42l.41.69a2.45,2.45,0,0,1-.82.51A3.3,3.3,0,0,1,68.55,54.07Zm-.16-5.2a1.15,1.15,0,0,0-.91.45A2.12,2.12,0,0,0,67,50.44v0h2.68v-.14a1.61,1.61,0,0,0-.33-1A1.19,1.19,0,0,0,68.39,48.87Z" fill="#3f3f3f"/><path d="M74.7,49.08l-.54,0a1.21,1.21,0,0,0-.71.2,1.27,1.27,0,0,0-.44.56V54H72V48.15h.95L73,49a2,2,0,0,1,.61-.7,1.43,1.43,0,0,1,.84-.25l.23,0,.18,0Z" fill="#3f3f3f"/><path d="M78,54.07a2.45,2.45,0,0,1-1.93-.81,3,3,0,0,1-.72-2.1v-.24a3,3,0,0,1,.74-2.07A2.27,2.27,0,0,1,77.87,48a2.2,2.2,0,0,1,1.78.71,2.83,2.83,0,0,1,.6,1.89v.66H76.48l0,0a2.29,2.29,0,0,0,.42,1.37,1.35,1.35,0,0,0,1.14.54,2.65,2.65,0,0,0,.94-.15,2.15,2.15,0,0,0,.7-.42l.41.69a2.45,2.45,0,0,1-.82.51A3.3,3.3,0,0,1,78,54.07Zm-.16-5.2a1.15,1.15,0,0,0-.91.45,2.12,2.12,0,0,0-.46,1.12v0h2.68v-.14a1.61,1.61,0,0,0-.33-1A1.19,1.19,0,0,0,77.87,48.87Z" fill="#3f3f3f"/><path d="M82.38,48.15l.08.86a2.11,2.11,0,0,1,.73-.72,1.94,1.94,0,0,1,1-.25,1.9,1.9,0,0,1,1.46.55,2.42,2.42,0,0,1,.52,1.7V54H85.1V50.31a1.57,1.57,0,0,0-.3-1.09,1.21,1.21,0,0,0-.93-.32,1.49,1.49,0,0,0-.81.22,1.61,1.61,0,0,0-.56.6V54H81.44V48.15Z" fill="#3f3f3f"/><path d="M90.05,53.24a1.43,1.43,0,0,0,.93-.33,1,1,0,0,0,.4-.8h1v0a1.64,1.64,0,0,1-.67,1.34,2.44,2.44,0,0,1-1.62.59,2.35,2.35,0,0,1-1.94-.83,3.19,3.19,0,0,1-.67-2.08v-.23a3.17,3.17,0,0,1,.67-2.07,2.64,2.64,0,0,1,3.6-.23,1.87,1.87,0,0,1,.63,1.48v0h-1a1.23,1.23,0,0,0-.38-.9,1.29,1.29,0,0,0-1-.37,1.28,1.28,0,0,0-1.19.6,2.82,2.82,0,0,0-.36,1.47v.23a2.85,2.85,0,0,0,.35,1.48A1.28,1.28,0,0,0,90.05,53.24Z" fill="#3f3f3f"/><path d="M95.94,54.07A2.45,2.45,0,0,1,94,53.26a3,3,0,0,1-.72-2.1v-.24A3,3,0,0,1,94,48.86,2.27,2.27,0,0,1,95.78,48a2.2,2.2,0,0,1,1.78.71,2.83,2.83,0,0,1,.6,1.89v.66H94.39l0,0a2.29,2.29,0,0,0,.42,1.37,1.35,1.35,0,0,0,1.14.54,2.65,2.65,0,0,0,.94-.15,2.15,2.15,0,0,0,.7-.42l.41.69a2.45,2.45,0,0,1-.82.51A3.3,3.3,0,0,1,95.94,54.07Zm-.16-5.2a1.15,1.15,0,0,0-.91.45,2.12,2.12,0,0,0-.46,1.12v0H97.1v-.14a1.61,1.61,0,0,0-.33-1A1.19,1.19,0,0,0,95.78,48.87Z" fill="#3f3f3f"/><path d="M102.72,52.41a.72.72,0,0,0-.27-.57,2.5,2.5,0,0,0-1-.39,4.24,4.24,0,0,1-1.59-.62,1.27,1.27,0,0,1-.53-1.08,1.52,1.52,0,0,1,.6-1.21,2.74,2.74,0,0,1,3.18,0,1.54,1.54,0,0,1,.57,1.27v0h-1a.93.93,0,0,0-.32-.69,1.18,1.18,0,0,0-.85-.3,1.22,1.22,0,0,0-.84.25.77.77,0,0,0-.27.6.66.66,0,0,0,.24.54,2.51,2.51,0,0,0,1,.35,4.23,4.23,0,0,1,1.64.64,1.29,1.29,0,0,1,.54,1.09,1.5,1.5,0,0,1-.63,1.25,2.62,2.62,0,0,1-1.64.48,2.55,2.55,0,0,1-1.75-.56,1.61,1.61,0,0,1-.61-1.32v0h1a1,1,0,0,0,.42.82,1.63,1.63,0,0,0,.92.26,1.5,1.5,0,0,0,.88-.23A.7.7,0,0,0,102.72,52.41Z" fill="#3f3f3f"/><rect x="-7.67" y="103.5" width="261.42" height="24.67" fill="#f4f4f4"/><path d="M51.85,112.14v5.3a2.38,2.38,0,0,1-.83,2,3.32,3.32,0,0,1-2.17.68,3.13,3.13,0,0,1-2.09-.68,2.42,2.42,0,0,1-.8-2v-5.3H47v5.3a1.72,1.72,0,0,0,.5,1.34,1.9,1.9,0,0,0,1.33.46,2.08,2.08,0,0,0,1.4-.46,1.67,1.67,0,0,0,.53-1.34v-5.3Z" fill="#3f3f3f"/><path d="M56.76,118.41a.72.72,0,0,0-.27-.57,2.5,2.5,0,0,0-1-.39,4.24,4.24,0,0,1-1.59-.62,1.27,1.27,0,0,1-.53-1.08,1.52,1.52,0,0,1,.6-1.21,2.74,2.74,0,0,1,3.18,0,1.54,1.54,0,0,1,.57,1.27v0h-1a.93.93,0,0,0-.32-.69,1.18,1.18,0,0,0-.85-.3,1.22,1.22,0,0,0-.84.25.77.77,0,0,0-.27.6.66.66,0,0,0,.24.54,2.51,2.51,0,0,0,1,.35,4.23,4.23,0,0,1,1.64.64,1.29,1.29,0,0,1,.54,1.09,1.5,1.5,0,0,1-.63,1.25,2.62,2.62,0,0,1-1.64.48,2.55,2.55,0,0,1-1.75-.56,1.61,1.61,0,0,1-.61-1.32v0h1a1,1,0,0,0,.42.82,1.63,1.63,0,0,0,.92.26,1.5,1.5,0,0,0,.88-.23A.7.7,0,0,0,56.76,118.41Z" fill="#3f3f3f"/><path d="M61.54,120.07a2.45,2.45,0,0,1-1.93-.81,3,3,0,0,1-.72-2.1v-.24a3,3,0,0,1,.74-2.07,2.27,2.27,0,0,1,1.75-.82,2.2,2.2,0,0,1,1.78.71,2.83,2.83,0,0,1,.6,1.89v.66H60l0,0a2.29,2.29,0,0,0,.42,1.37,1.35,1.35,0,0,0,1.14.54,2.65,2.65,0,0,0,.94-.15,2.15,2.15,0,0,0,.7-.42l.41.69a2.45,2.45,0,0,1-.82.51A3.3,3.3,0,0,1,61.54,120.07Zm-.16-5.2a1.15,1.15,0,0,0-.91.45,2.12,2.12,0,0,0-.46,1.12v0H62.7v-.14a1.61,1.61,0,0,0-.33-1A1.19,1.19,0,0,0,61.38,114.87Z" fill="#3f3f3f"/><path d="M67.7,115.08l-.54,0a1.21,1.21,0,0,0-.71.2,1.27,1.27,0,0,0-.44.56V120H64.95v-5.81h.95l.1.85a2,2,0,0,1,.61-.7,1.43,1.43,0,0,1,.84-.25l.23,0,.18,0Z" fill="#3f3f3f"/><path d="M72.71,116.82V120H71.65v-7.82h3a2.75,2.75,0,0,1,1.94.64,2.43,2.43,0,0,1,0,3.4,2.77,2.77,0,0,1-1.94.64Zm0-.83h1.93a1.55,1.55,0,0,0,1.18-2.58,1.52,1.52,0,0,0-1.18-.43H72.71Z" fill="#3f3f3f"/><path d="M81.25,115.08l-.54,0a1.21,1.21,0,0,0-.71.2,1.27,1.27,0,0,0-.44.56V120H78.5v-5.81h.95l.1.85a2,2,0,0,1,.61-.7A1.43,1.43,0,0,1,81,114l.23,0,.18,0Z" fill="#3f3f3f"/><path d="M81.92,117a3.2,3.2,0,0,1,.7-2.12,2.59,2.59,0,0,1,3.81,0,3.19,3.19,0,0,1,.7,2.13v.12a3.18,3.18,0,0,1-.7,2.13,2.6,2.6,0,0,1-3.81,0,3.18,3.18,0,0,1-.7-2.12Zm1.06.12a2.75,2.75,0,0,0,.39,1.52,1.41,1.41,0,0,0,2.31,0,2.74,2.74,0,0,0,.39-1.52V117a2.73,2.73,0,0,0-.4-1.52,1.29,1.29,0,0,0-1.16-.61,1.28,1.28,0,0,0-1.15.61A2.76,2.76,0,0,0,83,117Z" fill="#3f3f3f"/><path d="M88.86,120v-5h-.91v-.78h.91v-.74a2,2,0,0,1,.49-1.44,1.79,1.79,0,0,1,1.36-.51l.37,0,.41.08-.13.81-.23,0-.29,0a.84.84,0,0,0-.69.28,1.24,1.24,0,0,0-.23.8v.74h1.21v.78H89.91v5Z" fill="#3f3f3f"/><path d="M93.36,112.66H92.3v-1.08h1.06Zm0,7.3H92.3v-5.81h1.06Z" fill="#3f3f3f"/><path d="M96.13,120H95.07v-8.38h1.06Z" fill="#3f3f3f"/><path d="M100.17,120.07a2.45,2.45,0,0,1-1.93-.81,3,3,0,0,1-.72-2.1v-.24a3,3,0,0,1,.74-2.07A2.27,2.27,0,0,1,100,114a2.2,2.2,0,0,1,1.78.71,2.83,2.83,0,0,1,.6,1.89v.66H98.61l0,0A2.29,2.29,0,0,0,99,118.7a1.35,1.35,0,0,0,1.14.54,2.65,2.65,0,0,0,.94-.15,2.15,2.15,0,0,0,.7-.42l.41.69a2.45,2.45,0,0,1-.82.51A3.3,3.3,0,0,1,100.17,120.07Zm-.16-5.2a1.15,1.15,0,0,0-.91.45,2.12,2.12,0,0,0-.46,1.12v0h2.68v-.14a1.61,1.61,0,0,0-.33-1A1.19,1.19,0,0,0,100,114.87Z" fill="#3f3f3f"/><line x1="-5.87" y1="128.5" x2="257.88" y2="128.5" fill="none" stroke="#e2e2e2" stroke-miterlimit="10" stroke-width="2"/><polygon points="48.11 85.01 53.99 85.01 51.95 92.69 60.91 82.45 55.03 82.45 57.07 74.77 48.11 85.01" fill="#3f3f3f"/><path d="M81.87,84.93H78.6l-.74,2H76.77l3-7.82h.91l3,7.82H82.6ZM78.92,84h2.63l-1.29-3.56h0Z" fill="#3f3f3f"/><path d="M88.25,86.09a2,2,0,0,1-.7.72,1.92,1.92,0,0,1-1,.25,1.87,1.87,0,0,1-1.48-.61,2.82,2.82,0,0,1-.53-1.89V81.14h1.06v3.44a2.16,2.16,0,0,0,.27,1.28,1,1,0,0,0,.85.35,1.74,1.74,0,0,0,.93-.23,1.43,1.43,0,0,0,.56-.65V81.14h1.06v5.81h-1Z" fill="#3f3f3f"/><path d="M92.21,79.73v1.4h1.1v.78h-1.1v3.53a.79.79,0,0,0,.17.57.61.61,0,0,0,.45.17l.2,0,.2-.05.14.73A.93.93,0,0,1,93,87a1.74,1.74,0,0,1-.46.06,1.37,1.37,0,0,1-1-.39,1.69,1.69,0,0,1-.38-1.22V81.92h-.92v-.78h.92v-1.4Z" fill="#3f3f3f"/><path d="M94.36,84a3.2,3.2,0,0,1,.7-2.12,2.59,2.59,0,0,1,3.81,0,3.19,3.19,0,0,1,.7,2.13v.12a3.18,3.18,0,0,1-.7,2.13,2.6,2.6,0,0,1-3.81,0,3.18,3.18,0,0,1-.7-2.12Zm1.06.12a2.75,2.75,0,0,0,.39,1.52,1.41,1.41,0,0,0,2.31,0,2.74,2.74,0,0,0,.39-1.52V84a2.73,2.73,0,0,0-.4-1.52A1.29,1.29,0,0,0,97,81.86a1.28,1.28,0,0,0-1.15.61A2.76,2.76,0,0,0,95.42,84Z" fill="#3f3f3f"/><path d="M101.81,81.14l.08.76a2,2,0,0,1,.72-.64,2.17,2.17,0,0,1,1-.23,1.8,1.8,0,0,1,1,.27,1.63,1.63,0,0,1,.63.81,2.15,2.15,0,0,1,.73-.78A1.9,1.9,0,0,1,107,81a1.74,1.74,0,0,1,1.4.61,2.79,2.79,0,0,1,.52,1.83v3.48h-1.06V83.46a1.93,1.93,0,0,0-.3-1.22,1.08,1.08,0,0,0-.88-.36,1.12,1.12,0,0,0-.88.38,1.64,1.64,0,0,0-.39,1v3.73h-1.06V83.46a1.9,1.9,0,0,0-.3-1.19,1.05,1.05,0,0,0-.87-.38,1.45,1.45,0,0,0-.79.2,1.28,1.28,0,0,0-.48.56v4.3h-1.06V81.14Z" fill="#3f3f3f"/><path d="M114,86.95q-.05-.26-.08-.46a3.3,3.3,0,0,1,0-.41,2.48,2.48,0,0,1-.77.7,2,2,0,0,1-1,.28,1.9,1.9,0,0,1-1.38-.46,1.71,1.71,0,0,1-.48-1.28A1.5,1.5,0,0,1,111,84a3.15,3.15,0,0,1,1.83-.47h1.15V83a1.07,1.07,0,0,0-.31-.81,1.22,1.22,0,0,0-.88-.3,1.27,1.27,0,0,0-.83.26.78.78,0,0,0-.32.63h-1v0a1.41,1.41,0,0,1,.6-1.16A2.46,2.46,0,0,1,112.8,81a2.4,2.4,0,0,1,1.59.5A1.78,1.78,0,0,1,115,83v2.8a5.45,5.45,0,0,0,0,.6,3.1,3.1,0,0,0,.12.57Zm-1.76-.78a1.89,1.89,0,0,0,1-.29,1.4,1.4,0,0,0,.6-.67v-.94h-1.19a1.54,1.54,0,0,0-1,.32,1,1,0,0,0-.38.76.79.79,0,0,0,.24.61A1,1,0,0,0,112.29,86.17Z" fill="#3f3f3f"/><path d="M117.92,79.73v1.4H119v.78h-1.1v3.53a.79.79,0,0,0,.17.57.61.61,0,0,0,.45.17l.2,0,.2-.05.14.73a.93.93,0,0,1-.35.16,1.74,1.74,0,0,1-.46.06,1.37,1.37,0,0,1-1-.39,1.69,1.69,0,0,1-.38-1.22V81.92h-.92v-.78h.92v-1.4Z" fill="#3f3f3f"/><path d="M121.47,79.65h-1.06V78.57h1.06Zm0,7.3h-1.06V81.14h1.06Z" fill="#3f3f3f"/><path d="M125.46,86.23a1.43,1.43,0,0,0,.93-.33,1,1,0,0,0,.4-.8h1v0a1.64,1.64,0,0,1-.67,1.34,2.44,2.44,0,0,1-1.62.59,2.35,2.35,0,0,1-1.94-.83,3.19,3.19,0,0,1-.67-2.08v-.23a3.17,3.17,0,0,1,.67-2.07,2.64,2.64,0,0,1,3.6-.23,1.87,1.87,0,0,1,.63,1.48v0h-1a1.23,1.23,0,0,0-.38-.9,1.29,1.29,0,0,0-1-.37,1.28,1.28,0,0,0-1.19.6,2.82,2.82,0,0,0-.36,1.47v.23a2.85,2.85,0,0,0,.35,1.48A1.28,1.28,0,0,0,125.46,86.23Z" fill="#3f3f3f"/><path d="M132.93,83.56v3.39h-1.06V79.13h2.83a3,3,0,0,1,2,.57,2,2,0,0,1,.68,1.65,1.78,1.78,0,0,1-.31,1,2.13,2.13,0,0,1-.92.71,1.6,1.6,0,0,1,.93.68,2.21,2.21,0,0,1,.28,1.16v.74a2.41,2.41,0,0,0,.08.66,1,1,0,0,0,.28.47v.13h-1.09a.87.87,0,0,1-.27-.54,4.37,4.37,0,0,1-.06-.73V85a1.41,1.41,0,0,0-.37-1,1.31,1.31,0,0,0-1-.39Zm0-.83h1.67a2,2,0,0,0,1.29-.34,1.29,1.29,0,0,0,.39-1,1.34,1.34,0,0,0-.38-1,1.69,1.69,0,0,0-1.2-.36h-1.77Z" fill="#3f3f3f"/><path d="M141.37,87.06a2.45,2.45,0,0,1-1.93-.81,3,3,0,0,1-.72-2.1v-.24a3,3,0,0,1,.74-2.07,2.28,2.28,0,0,1,1.75-.82,2.2,2.2,0,0,1,1.78.71,2.83,2.83,0,0,1,.6,1.89v.66h-3.77l0,0a2.29,2.29,0,0,0,.42,1.37,1.35,1.35,0,0,0,1.14.54,2.65,2.65,0,0,0,.94-.15,2.16,2.16,0,0,0,.7-.42l.41.69a2.45,2.45,0,0,1-.82.51A3.3,3.3,0,0,1,141.37,87.06Zm-.16-5.2a1.15,1.15,0,0,0-.91.45,2.12,2.12,0,0,0-.46,1.12v0h2.68v-.14a1.61,1.61,0,0,0-.33-1A1.19,1.19,0,0,0,141.21,81.86Z" fill="#3f3f3f"/><path d="M147.14,86.23a1.43,1.43,0,0,0,.93-.33,1,1,0,0,0,.4-.8h1v0a1.64,1.64,0,0,1-.67,1.34,2.44,2.44,0,0,1-1.62.59,2.35,2.35,0,0,1-1.94-.83,3.19,3.19,0,0,1-.67-2.08v-.23a3.18,3.18,0,0,1,.67-2.07,2.64,2.64,0,0,1,3.6-.23,1.87,1.87,0,0,1,.63,1.48v0h-1a1.23,1.23,0,0,0-.38-.9,1.29,1.29,0,0,0-1-.37,1.28,1.28,0,0,0-1.19.6,2.81,2.81,0,0,0-.36,1.47v.23a2.85,2.85,0,0,0,.36,1.48A1.28,1.28,0,0,0,147.14,86.23Z" fill="#3f3f3f"/><path d="M150.37,84a3.2,3.2,0,0,1,.7-2.12,2.59,2.59,0,0,1,3.81,0,3.19,3.19,0,0,1,.7,2.13v.12a3.18,3.18,0,0,1-.7,2.13,2.6,2.6,0,0,1-3.81,0,3.18,3.18,0,0,1-.7-2.12Zm1.06.12a2.75,2.75,0,0,0,.39,1.52,1.41,1.41,0,0,0,2.31,0,2.74,2.74,0,0,0,.39-1.52V84a2.73,2.73,0,0,0-.4-1.52,1.29,1.29,0,0,0-1.16-.61,1.28,1.28,0,0,0-1.15.61,2.76,2.76,0,0,0-.39,1.52Z" fill="#3f3f3f"/><path d="M159.62,82.07l-.54,0a1.21,1.21,0,0,0-.71.2,1.27,1.27,0,0,0-.44.56v4.15h-1.06V81.14h.95l.1.85a2,2,0,0,1,.61-.7,1.43,1.43,0,0,1,.83-.25l.23,0,.18,0Z" fill="#3f3f3f"/><path d="M160.29,84.15a3.88,3.88,0,0,1,.6-2.26,1.93,1.93,0,0,1,1.68-.86,2.08,2.08,0,0,1,.91.19,1.86,1.86,0,0,1,.67.55v-3.2h1.06v8.38h-.87l-.12-.71a1.89,1.89,0,0,1-.7.62,2.1,2.1,0,0,1-1,.21,2,2,0,0,1-1.67-.77,3.2,3.2,0,0,1-.6-2Zm1.06.11a2.47,2.47,0,0,0,.36,1.41,1.26,1.26,0,0,0,1.12.53,1.4,1.4,0,0,0,.79-.21,1.6,1.6,0,0,0,.53-.6V82.67a1.63,1.63,0,0,0-.53-.57,1.4,1.4,0,0,0-.78-.21,1.21,1.21,0,0,0-1.12.63,3.24,3.24,0,0,0-.36,1.63Z" fill="#3f3f3f"/><path d="M167.93,79.65h-1.06V78.57h1.06Zm0,7.3h-1.06V81.14h1.06Z" fill="#3f3f3f"/><path d="M170.5,81.14l.08.86a2.11,2.11,0,0,1,.73-.72,1.94,1.94,0,0,1,1-.25,1.9,1.9,0,0,1,1.46.55,2.42,2.42,0,0,1,.52,1.7v3.67h-1.06V83.3a1.57,1.57,0,0,0-.3-1.09,1.22,1.22,0,0,0-.93-.32,1.49,1.49,0,0,0-.81.22,1.61,1.61,0,0,0-.56.6v4.24h-1.06V81.14Z" fill="#3f3f3f"/><path d="M175.58,84.15a3.81,3.81,0,0,1,.61-2.26,2,2,0,0,1,1.69-.86,2,2,0,0,1,1,.22,1.92,1.92,0,0,1,.7.64l.13-.76h.84V87a2.22,2.22,0,0,1-.65,1.72,2.67,2.67,0,0,1-1.87.6,3.92,3.92,0,0,1-.9-.12,3.55,3.55,0,0,1-.86-.31l.27-.82a2.7,2.7,0,0,0,.69.26,3.32,3.32,0,0,0,.79.1,1.54,1.54,0,0,0,1.13-.35,1.46,1.46,0,0,0,.35-1.07v-.66a1.85,1.85,0,0,1-.68.55,2.15,2.15,0,0,1-.91.19,2,2,0,0,1-1.68-.77,3.17,3.17,0,0,1-.61-2Zm1.06.11a2.42,2.42,0,0,0,.37,1.41,1.28,1.28,0,0,0,1.13.53,1.4,1.4,0,0,0,.8-.22,1.65,1.65,0,0,0,.53-.62V82.69a1.64,1.64,0,0,0-.53-.59,1.39,1.39,0,0,0-.79-.22,1.23,1.23,0,0,0-1.13.63,3.16,3.16,0,0,0-.37,1.63Z" fill="#3f3f3f"/><path d="M81.87,150.32H78.6l-.74,2H76.77l3-7.82h.91l3,7.82H82.6Zm-2.95-.89h2.63l-1.29-3.56h0Z" fill="#3f3f3f"/><path d="M84.33,149.53a3.81,3.81,0,0,1,.61-2.26,2,2,0,0,1,1.69-.86,2,2,0,0,1,1,.22,1.91,1.91,0,0,1,.7.64l.13-.76h.84v5.84a2.22,2.22,0,0,1-.65,1.72,2.67,2.67,0,0,1-1.87.6,3.92,3.92,0,0,1-.9-.12,3.53,3.53,0,0,1-.86-.31l.27-.82a2.72,2.72,0,0,0,.69.26,3.35,3.35,0,0,0,.79.1,1.54,1.54,0,0,0,1.13-.35,1.46,1.46,0,0,0,.35-1.07v-.66a1.86,1.86,0,0,1-.68.55,2.15,2.15,0,0,1-.91.18,2,2,0,0,1-1.68-.77,3.17,3.17,0,0,1-.61-2Zm1.06.11a2.42,2.42,0,0,0,.37,1.41,1.28,1.28,0,0,0,1.13.53,1.4,1.4,0,0,0,.8-.22,1.66,1.66,0,0,0,.53-.62v-2.67a1.64,1.64,0,0,0-.53-.59,1.39,1.39,0,0,0-.79-.22,1.23,1.23,0,0,0-1.13.63,3.15,3.15,0,0,0-.38,1.63Z" fill="#3f3f3f"/><path d="M93.22,152.44a2.45,2.45,0,0,1-1.93-.81,3,3,0,0,1-.72-2.1v-.24a3,3,0,0,1,.74-2.07,2.27,2.27,0,0,1,1.75-.82,2.2,2.2,0,0,1,1.78.71,2.82,2.82,0,0,1,.6,1.89v.66H91.67l0,0a2.29,2.29,0,0,0,.42,1.37,1.35,1.35,0,0,0,1.14.54,2.65,2.65,0,0,0,.94-.15,2.15,2.15,0,0,0,.7-.42l.41.69a2.45,2.45,0,0,1-.82.51A3.32,3.32,0,0,1,93.22,152.44Zm-.16-5.2a1.15,1.15,0,0,0-.91.45,2.11,2.11,0,0,0-.46,1.12v0h2.68v-.14a1.61,1.61,0,0,0-.33-1A1.19,1.19,0,0,0,93.06,147.24Z" fill="#3f3f3f"/><path d="M83.3,177.47a2.5,2.5,0,0,1-1,.79,3.87,3.87,0,0,1-1.79.36,3.18,3.18,0,0,1-2.32-.9,3.11,3.11,0,0,1-.92-2.32v-1.61a3.23,3.23,0,0,1,.85-2.32,2.9,2.9,0,0,1,2.2-.9,3.13,3.13,0,0,1,2.11.66,2.19,2.19,0,0,1,.78,1.7v0h-1a1.64,1.64,0,0,0-.52-1.12,1.91,1.91,0,0,0-1.36-.44,1.77,1.77,0,0,0-1.44.67,2.6,2.6,0,0,0-.55,1.7v1.62a2.45,2.45,0,0,0,.61,1.71,2,2,0,0,0,1.56.67,2.88,2.88,0,0,0,1.09-.18,1.53,1.53,0,0,0,.61-.4v-1.77H80.53v-.83H83.3Z" fill="#3f3f3f"/><path d="M87.34,178.62a2.45,2.45,0,0,1-1.93-.81,3,3,0,0,1-.72-2.1v-.24a3,3,0,0,1,.74-2.07,2.27,2.27,0,0,1,1.75-.82,2.2,2.2,0,0,1,1.78.71,2.82,2.82,0,0,1,.6,1.89v.66H85.79l0,0a2.29,2.29,0,0,0,.42,1.37,1.35,1.35,0,0,0,1.14.54,2.65,2.65,0,0,0,.94-.15,2.15,2.15,0,0,0,.7-.42l.41.69a2.45,2.45,0,0,1-.82.51A3.32,3.32,0,0,1,87.34,178.62Zm-.16-5.2a1.15,1.15,0,0,0-.91.45,2.11,2.11,0,0,0-.46,1.12v0H88.5v-.14a1.61,1.61,0,0,0-.33-1A1.19,1.19,0,0,0,87.18,173.42Z" fill="#3f3f3f"/><path d="M91.7,172.7l.08.86a2.11,2.11,0,0,1,.73-.72,1.94,1.94,0,0,1,1-.25,1.9,1.9,0,0,1,1.46.55,2.41,2.41,0,0,1,.52,1.7v3.67H94.41v-3.65a1.57,1.57,0,0,0-.3-1.09,1.21,1.21,0,0,0-.93-.32,1.49,1.49,0,0,0-.81.22,1.61,1.61,0,0,0-.56.6v4.24H90.75V172.7Z" fill="#3f3f3f"/><path d="M96.76,175.71a3.88,3.88,0,0,1,.6-2.26,1.93,1.93,0,0,1,1.68-.86,2.09,2.09,0,0,1,.91.19,1.87,1.87,0,0,1,.67.55v-3.2h1.06v8.38h-.86l-.12-.71a1.88,1.88,0,0,1-.7.62,2.1,2.1,0,0,1-1,.21,2,2,0,0,1-1.67-.77,3.2,3.2,0,0,1-.6-2Zm1.06.11a2.47,2.47,0,0,0,.36,1.41,1.26,1.26,0,0,0,1.12.53,1.4,1.4,0,0,0,.79-.21,1.6,1.6,0,0,0,.53-.6v-2.71a1.63,1.63,0,0,0-.53-.57,1.4,1.4,0,0,0-.78-.21,1.21,1.21,0,0,0-1.12.63,3.24,3.24,0,0,0-.36,1.63Z" fill="#3f3f3f"/><path d="M105.67,178.62a2.45,2.45,0,0,1-1.93-.81,3,3,0,0,1-.72-2.1v-.24a3,3,0,0,1,.74-2.07,2.27,2.27,0,0,1,1.75-.82,2.2,2.2,0,0,1,1.78.71,2.82,2.82,0,0,1,.6,1.89v.66h-3.77l0,0a2.29,2.29,0,0,0,.42,1.37,1.35,1.35,0,0,0,1.14.54,2.65,2.65,0,0,0,.94-.15,2.15,2.15,0,0,0,.7-.42l.41.69a2.45,2.45,0,0,1-.82.51A3.32,3.32,0,0,1,105.67,178.62Zm-.16-5.2a1.15,1.15,0,0,0-.91.45,2.11,2.11,0,0,0-.46,1.12v0h2.68v-.14a1.61,1.61,0,0,0-.33-1A1.19,1.19,0,0,0,105.5,173.42Z" fill="#3f3f3f"/><path d="M111.82,173.63l-.54,0a1.22,1.22,0,0,0-.71.2,1.28,1.28,0,0,0-.44.56v4.15h-1.06V172.7H110l.1.85a2,2,0,0,1,.61-.7,1.43,1.43,0,0,1,.84-.25l.23,0,.18,0Z" fill="#3f3f3f"/><path d="M82.27,199.49H78.69v2.79h4.13v.83H77.63v-7.82h5.13v.83H78.69v2.53h3.58Z" fill="#3f3f3f"/><path d="M85.84,199.44l1.24-2.14h1.24l-1.89,2.87,1.94,2.94H87.15l-1.29-2.2-1.29,2.2H83.34l1.94-2.94L83.4,197.3h1.22Z" fill="#3f3f3f"/><path d="M94.35,200.42a3.2,3.2,0,0,1-.6,2,2,2,0,0,1-1.66.77,2.3,2.3,0,0,1-.94-.18,1.8,1.8,0,0,1-.69-.54v2.84H89.4v-8h.81l.17.75a1.92,1.92,0,0,1,.71-.64,2.11,2.11,0,0,1,1-.22,1.93,1.93,0,0,1,1.68.86,3.88,3.88,0,0,1,.6,2.26Zm-1.06-.12a3.06,3.06,0,0,0-.39-1.62,1.26,1.26,0,0,0-1.15-.64,1.41,1.41,0,0,0-.78.21,1.55,1.55,0,0,0-.52.57v2.81a1.49,1.49,0,0,0,.52.56,1.46,1.46,0,0,0,.79.2,1.3,1.3,0,0,0,1.14-.55,2.41,2.41,0,0,0,.39-1.42Z" fill="#3f3f3f"/><path d="M98.06,203.22a2.45,2.45,0,0,1-1.93-.81,3,3,0,0,1-.72-2.1v-.24a3,3,0,0,1,.74-2.07,2.28,2.28,0,0,1,1.75-.82,2.2,2.2,0,0,1,1.78.71,2.83,2.83,0,0,1,.6,1.89v.66H96.51l0,0a2.29,2.29,0,0,0,.42,1.37,1.35,1.35,0,0,0,1.14.54,2.65,2.65,0,0,0,.94-.15,2.16,2.16,0,0,0,.7-.42l.41.69a2.45,2.45,0,0,1-.82.51A3.29,3.29,0,0,1,98.06,203.22ZM97.9,198a1.15,1.15,0,0,0-.91.45,2.12,2.12,0,0,0-.46,1.12v0h2.68v-.14a1.61,1.61,0,0,0-.33-1A1.19,1.19,0,0,0,97.9,198Z" fill="#3f3f3f"/><path d="M104.22,198.23l-.54,0a1.21,1.21,0,0,0-.71.2,1.27,1.27,0,0,0-.44.56v4.15h-1.06V197.3h.95l.1.85a2,2,0,0,1,.61-.7,1.42,1.42,0,0,1,.84-.25l.23,0,.18,0Z" fill="#3f3f3f"/><path d="M106.38,195.81h-1.06v-1.08h1.06Zm0,7.3h-1.06V197.3h1.06Z" fill="#3f3f3f"/><path d="M110.42,203.22a2.45,2.45,0,0,1-1.93-.81,3,3,0,0,1-.72-2.1v-.24a3,3,0,0,1,.74-2.07,2.28,2.28,0,0,1,1.75-.82,2.2,2.2,0,0,1,1.78.71,2.83,2.83,0,0,1,.6,1.89v.66h-3.77l0,0a2.29,2.29,0,0,0,.42,1.37,1.35,1.35,0,0,0,1.14.54,2.65,2.65,0,0,0,.94-.15,2.16,2.16,0,0,0,.7-.42l.41.69a2.45,2.45,0,0,1-.82.51A3.29,3.29,0,0,1,110.42,203.22Zm-.16-5.2a1.15,1.15,0,0,0-.91.45,2.12,2.12,0,0,0-.46,1.12v0h2.68v-.14a1.61,1.61,0,0,0-.33-1A1.19,1.19,0,0,0,110.26,198Z" fill="#3f3f3f"/><path d="M114.77,197.3l.08.87a2.11,2.11,0,0,1,.73-.72,1.94,1.94,0,0,1,1-.25,1.9,1.9,0,0,1,1.46.55,2.42,2.42,0,0,1,.52,1.7v3.67h-1.06v-3.65a1.57,1.57,0,0,0-.3-1.09,1.21,1.21,0,0,0-.93-.32,1.49,1.49,0,0,0-.81.22,1.6,1.6,0,0,0-.56.6v4.24h-1.06V197.3Z" fill="#3f3f3f"/><path d="M122.44,202.39a1.43,1.43,0,0,0,.93-.33,1,1,0,0,0,.4-.8h1v0a1.64,1.64,0,0,1-.67,1.34,2.44,2.44,0,0,1-1.62.59,2.35,2.35,0,0,1-1.94-.83,3.19,3.19,0,0,1-.67-2.08v-.23a3.17,3.17,0,0,1,.67-2.07,2.64,2.64,0,0,1,3.6-.23,1.87,1.87,0,0,1,.63,1.48v0h-1a1.23,1.23,0,0,0-.38-.91,1.29,1.29,0,0,0-1-.37,1.28,1.28,0,0,0-1.19.6,2.82,2.82,0,0,0-.36,1.47v.22a2.85,2.85,0,0,0,.35,1.48A1.28,1.28,0,0,0,122.44,202.39Z" fill="#3f3f3f"/><path d="M128.33,203.22a2.45,2.45,0,0,1-1.93-.81,3,3,0,0,1-.72-2.1v-.24a3,3,0,0,1,.74-2.07,2.28,2.28,0,0,1,1.75-.82,2.2,2.2,0,0,1,1.78.71,2.82,2.82,0,0,1,.6,1.89v.66h-3.77l0,0a2.29,2.29,0,0,0,.42,1.37,1.35,1.35,0,0,0,1.14.54,2.65,2.65,0,0,0,.94-.15,2.17,2.17,0,0,0,.7-.42l.41.69a2.45,2.45,0,0,1-.82.51A3.3,3.3,0,0,1,128.33,203.22Zm-.16-5.2a1.15,1.15,0,0,0-.91.45,2.12,2.12,0,0,0-.46,1.12v0h2.68v-.14a1.62,1.62,0,0,0-.33-1A1.19,1.19,0,0,0,128.17,198Z" fill="#3f3f3f"/><path d="M135.72,202.28h3.7v.83h-4.76v-7.82h1.06Z" fill="#3f3f3f"/><path d="M142.82,203.22a2.45,2.45,0,0,1-1.93-.81,3,3,0,0,1-.72-2.1v-.24a3,3,0,0,1,.74-2.07,2.28,2.28,0,0,1,1.75-.82,2.2,2.2,0,0,1,1.78.71,2.83,2.83,0,0,1,.6,1.89v.66h-3.77l0,0a2.29,2.29,0,0,0,.42,1.37,1.35,1.35,0,0,0,1.14.54,2.65,2.65,0,0,0,.94-.15,2.17,2.17,0,0,0,.7-.42l.41.69a2.45,2.45,0,0,1-.82.51A3.29,3.29,0,0,1,142.82,203.22Zm-.16-5.2a1.15,1.15,0,0,0-.91.45,2.12,2.12,0,0,0-.46,1.12v0H144v-.14a1.62,1.62,0,0,0-.33-1A1.19,1.19,0,0,0,142.66,198Z" fill="#3f3f3f"/><path d="M148.09,201.4l.09.41h0l.1-.41,1.34-4.1h1.08l-2.14,5.81h-.8l-2.17-5.81h1.08Z" fill="#3f3f3f"/><path d="M154,203.22a2.45,2.45,0,0,1-1.93-.81,3,3,0,0,1-.72-2.1v-.24a3,3,0,0,1,.74-2.07,2.28,2.28,0,0,1,1.75-.82,2.2,2.2,0,0,1,1.78.71,2.83,2.83,0,0,1,.6,1.89v.66h-3.77l0,0a2.29,2.29,0,0,0,.42,1.37,1.35,1.35,0,0,0,1.14.54,2.65,2.65,0,0,0,.94-.15,2.17,2.17,0,0,0,.7-.42l.41.69a2.45,2.45,0,0,1-.82.51A3.29,3.29,0,0,1,154,203.22Zm-.16-5.2a1.15,1.15,0,0,0-.91.45,2.12,2.12,0,0,0-.46,1.12v0h2.68v-.14a1.62,1.62,0,0,0-.33-1A1.19,1.19,0,0,0,153.87,198Z" fill="#3f3f3f"/><path d="M158.58,203.11h-1.06v-8.38h1.06Z" fill="#3f3f3f"/><path d="M59,149.76H55.15v3.84H59Zm-1.28-8.32v1.28h-6.4v-1.28H49.39v1.28h-1a1.6,1.6,0,0,0-1.6,1.6V155.2a1.6,1.6,0,0,0,1.6,1.6H60.59a1.6,1.6,0,0,0,1.6-1.6V144.32a1.6,1.6,0,0,0-1.6-1.6h-1v-1.28Zm2.88,13.76H48.43v-8.48H60.59Z" fill="#3f3f3f"/><path d="M57.77,174.34a2.4,2.4,0,1,0-2.44-2.4A2.43,2.43,0,0,0,57.77,174.34Zm-6.52,0a2.4,2.4,0,1,0-2.44-2.4A2.43,2.43,0,0,0,51.25,174.34Zm0,1.76c-1.91,0-5.7.92-5.7,2.8v2.16H57.07V178.9C57.07,177,53.17,176.1,51.25,176.1Zm6.52.44a4.35,4.35,0,0,0-.7,0,2.38,2.38,0,0,1,1.28,2.32v2.16h5.12V178.9C63.47,177,59.69,176.54,57.77,176.54Z" fill="#3f3f3f"/><path d="M57.5,194.9a1.34,1.34,0,1,0-1.34-1.34A1.34,1.34,0,0,0,57.5,194.9Zm2.24,5.21a3.73,3.73,0,1,0,3.73,3.73A3.74,3.74,0,0,0,59.74,200.11Zm0,6.35a2.61,2.61,0,1,1,2.61-2.61A2.6,2.6,0,0,1,59.74,206.46Zm-3.24-7.84h3.14v-1.28H57.28l-1.38-2.41a1.29,1.29,0,0,0-1.08-.63,1.3,1.3,0,0,0-.9.37L51,197.43a1.3,1.3,0,0,0-.37.9,1.35,1.35,0,0,0,.74,1.08l2.46,1.53v3.43h1.28V199.9l-1.57-1.28,1.72-1.78Zm-7.21,1.49A3.73,3.73,0,1,0,53,203.84,3.74,3.74,0,0,0,49.29,200.11Zm0,6.35a2.61,2.61,0,1,1,2.61-2.61A2.6,2.6,0,0,1,49.29,206.46Z" fill="#3f3f3f"/><rect x="192" y="79.7" width="21.5" height="8" rx="4" ry="4" fill="#b3caff"/><circle cx="209.57" cy="83.7" r="6.82" fill="#3878fc" stroke="#aaa" stroke-miterlimit="10" stroke-width="0.25"/><line x1="77.5" y1="160" x2="216.5" y2="160" fill="none" stroke="#e0e0e0" stroke-miterlimit="10" stroke-width="0.5"/><line x1="77.5" y1="187" x2="216.5" y2="187" fill="none" stroke="#e0e0e0" stroke-miterlimit="10" stroke-width="0.5"/><polygon points="211.2 151.03 207.22 147.05 215.18 147.05 211.2 151.03" fill="#afafaf"/><polygon points="211.2 175.78 207.22 171.8 215.18 171.8 211.2 175.78" fill="#afafaf"/><polygon points="211.2 200.53 207.22 196.55 215.18 196.55 211.2 200.53" fill="#afafaf"/></g><circle cx="125" cy="125" r="121.13" fill="none" stroke="#ededed" stroke-miterlimit="10" stroke-width="6"/></svg>