<svg xmlns="http://www.w3.org/2000/svg" xmlns:xlink="http://www.w3.org/1999/xlink" viewBox="0 0 250 250"><defs><radialGradient id="a" cx="171.33" cy="100.67" r="147.16" gradientUnits="userSpaceOnUse"><stop offset="0" stop-color="#8ea7f5"/><stop offset="1" stop-color="#2b324a"/></radialGradient><clipPath id="b"><circle cx="125" cy="125" r="118.75" fill="none"/></clipPath><radialGradient id="c" cx="170.33" cy="107" r="49" gradientUnits="userSpaceOnUse"><stop offset="0" stop-color="#fbb03b"/><stop offset="0.39" stop-color="#fbae3a"/><stop offset="0.57" stop-color="#faa638"/><stop offset="0.71" stop-color="#f89a35"/><stop offset="0.83" stop-color="#f68730"/><stop offset="0.93" stop-color="#f4702a"/><stop offset="1" stop-color="#f15a24"/></radialGradient><radialGradient id="d" cx="175.33" cy="118.67" r="160.01" gradientUnits="userSpaceOnUse"><stop offset="0" stop-color="#5a7f4c"/><stop offset="1" stop-color="#405438"/></radialGradient><linearGradient id="e" x1="131.24" y1="219.5" x2="131.24" y2="121.8" gradientUnits="userSpaceOnUse"><stop offset="0" stop-color="#fff"/><stop offset="1"/></linearGradient></defs><title>Artboard 1</title><g style="isolation:isolate"><circle cx="125" cy="125" r="118.75" fill="url(#a)"/><g clip-path="url(#b)"><circle cx="170.33" cy="107" r="49" fill="url(#c)"/><path d="M127.67,110.33c-46.2,0-91.53,2.06-135.69,6L-7,255l277.5.5-6.42-139.07c-44.39-4-90-6.1-136.41-6.1" fill="url(#d)"/><path d="M127.67,110.33c-46.2,0-91.53,2.06-135.69,6L-7,255l277.5.5-6.42-139.07c-44.39-4-90-6.1-136.41-6.1" opacity="0.4" fill="url(#e)" style="mix-blend-mode:multiply"/><path d="M97.35,241.79c-3.74-8.61,2.83-18.42,10.66-23.61s17.26-8.06,24-14.61a29.35,29.35,0,0,0,8.19-26.06c-.82-4.27-2.6-8.32-3.39-12.6s-1.14-6.88.51-10.34c2.22-4.65,11.22-6.13,16.17-7.53,8.5-2.41,16-9.43,17.24-18.18s-5.64-17.84-14.47-18.28c4.18,5.5,8.61,12.09,6.83,18.77-1.61,6-7.85,9.7-13.94,11.07s-12.47,1.08-18.54,2.55-12.21,5.42-13.47,11.53c-1.52,7.35,4.41,14.1,5.54,21.52,1.37,9-4.69,17.72-12.19,22.91s-16.42,7.85-24.65,11.79-16.29,9.8-19.21,18.44" fill="#534741"/></g><ellipse cx="141.96" cy="142.33" rx="1.25" ry="2.08"/><ellipse cx="146.13" cy="141.33" rx="1.25" ry="2.08"/><path d="M143.5,140.08c-.37-.59-2-.77-2-1.47s.73-1,1.27-1.53c.28-.29.46-1,.74-1.3a1.85,1.85,0,0,1,.69-.52.63.63,0,0,1,.77.24c.14.29,0,.62-.19.91-.47.9-1.63,1.27-1.46,2.27,0,.23.39.41.68.95.51,1,.2,3.41,0,3.41S143.83,140.62,143.5,140.08Z"/><ellipse cx="145.22" cy="134.91" rx="0.85" ry="0.69" transform="translate(-30.45 226.73) rotate(-70.49)"/><path d="M144.85,137.75a2.22,2.22,0,0,1-.34-1.17c0-.16,0-.37.2-.4s.27.16.34.31c.22.48-.06.75.29,1.15.09.1.8.34.82.47C146.3,138.87,145,138,144.85,137.75Z"/><circle cx="125" cy="125" r="121.13" fill="none" stroke="#ededed" stroke-miterlimit="10" stroke-width="6"/></g></svg>